<svg id="channel-gongkaike" fill="none" viewBox="0 0 40 40"><rect width="14" height="3" rx="1.5" transform="matrix(-.17365 .9848 -.98266 -.18541 17.38 20)" fill="#FFD778"></rect><rect width="14" height="3" rx="1.5" transform="matrix(-.17365 -.9848 .98681 -.16186 26.425 33.752)" fill="#FFD778"></rect><rect x="7" y="6" width="26.654" height="20.042" rx="2" fill="#7B78EA"></rect><rect x="4" y="23.815" width="32" height="3" rx="1.5" fill="#FFD778"></rect><path fill-rule="evenodd" clip-rule="evenodd" d="m24.638 15.197-5.43 3.671a.753.753 0 0 1-.59.113.756.756 0 0 1-.279-.13.8.8 0 0 1-.21-.235.82.82 0 0 1-.129-.442v-7.35a.854.854 0 0 1 .233-.583.767.767 0 0 1 .555-.24.715.715 0 0 1 .42.129l5.43 3.67a.832.832 0 0 1 .344.521.87.87 0 0 1-.105.624.79.79 0 0 1-.239.252Z" fill="#FFD778"></path></svg>