<svg id="channel-eye" fill="none" viewBox="0 0 16 17"><path fill-rule="evenodd" clip-rule="evenodd" d="M1.852 8.052C2.72 6.742 4.795 4.25 7.918 4.25c3.1 0 5.256 2.453 6.187 3.777a.81.81 0 0 1 0 .946c-.93 1.324-3.088 3.777-6.187 3.777-3.123 0-5.198-2.492-6.066-3.802a.8.8 0 0 1 0-.896ZM7.918 3.25c-3.67 0-6.005 2.9-6.9 4.25a1.8 1.8 0 0 0 0 2c.895 1.35 3.23 4.25 6.9 4.25 3.63 0 6.05-2.842 7.006-4.202a1.811 1.811 0 0 0 0-2.096c-.957-1.36-3.376-4.202-7.006-4.202ZM6 8.5a2 2 0 1 1 4 0 2 2 0 0 1-4 0Zm2-3a3 3 0 1 0 0 6 3 3 0 0 0 0-6Z" fill="currentColor"></path></svg>