<svg id="channel-cinema" viewBox="0 0 1024 1024"><path d="M682.24 716.8c34.56 0 71.936-2.56 106.496 0 61.184 0 74.752 39.936 76.8 93.184a32 32 0 0 0 64 0c0-71.936-25.6-143.872-106.752-157.184a807.168 807.168 0 0 0-138.496 0 32 32 0 0 0-2.56 64" fill="#FB813A"></path><path d="M860.672 489.472A354.304 354.304 0 1 0 506.368 844.8a358.4 358.4 0 0 0 354.304-355.328" fill="#FB813A"></path><path d="M695.552 566.528a79.872 79.872 0 1 1 79.872-80.128 79.872 79.872 0 0 1-79.872 79.872M508.928 384a79.872 79.872 0 0 1-79.872-79.872 80.128 80.128 0 0 1 160 0A80.128 80.128 0 0 1 508.928 384m0 372.992a79.872 79.872 0 0 1-79.872-79.872 81.92 81.92 0 0 1 79.872-79.872A80.128 80.128 0 0 1 588.8 675.84a78.592 78.592 0 0 1-80.128 79.872M322.56 566.528a79.872 79.872 0 1 1 79.872-80.128 79.872 79.872 0 0 1-79.872 79.872M512 128a372.992 372.992 0 1 0 372.736 371.968A374.016 374.016 0 0 0 512 128" fill="#FFBA7B"></path><path d="M567.552 489.472a58.624 58.624 0 1 0-58.624 58.624 59.136 59.136 0 0 0 58.624-58.624" fill="#FB952C"></path></svg>