<svg id="channel-yinpin" viewBox="0 0 1024 1024"><path d="M870.4 436.992a168.192 168.192 0 0 1-183.552 153.6A170.24 170.24 0 0 1 537.6 401.92a168.192 168.192 0 0 1 183.552-153.6A170.24 170.24 0 0 1 870.4 436.992" fill="#FFBA7B"></path><path d="M738.56 806.4c148.992-131.072 169.472-360.448 53.504-529.408-7.68-11.264-128-22.272-128-22.272L194.304 665.6a60.16 60.16 0 0 0-4.352 83.712v1.536C334.592 921.6 579.584 947.2 738.56 806.4" fill="#FFBA7B"></path><path d="M371.2 645.12a207.872 207.872 0 0 0 182.784-195.584 30.208 30.208 0 0 0-33.28-31.744L179.2 455.424a30.464 30.464 0 0 0-25.6 38.144A204.8 204.8 0 0 0 371.2 645.12" fill="#FB952C"></path><path d="M723.2 338.432a35.072 35.072 0 1 0 30.72 38.656 34.816 34.816 0 0 0-30.72-38.656M539.904 281.6l54.272 23.552a51.2 51.2 0 0 1 25.6 66.56l-5.888 14.336a49.408 49.408 0 0 1-65.024 25.6l-54.272-23.552a6.912 6.912 0 0 1 0-12.544l53.76-22.272a7.168 7.168 0 0 0 3.84-8.96l-21.76-55.04a6.656 6.656 0 0 1 8.704-8.96" fill="#FB813A"></path><path d="M442.112 142.336A17.408 17.408 0 0 0 425.216 128h-3.84a17.664 17.664 0 0 0-17.408 17.664v113.152a76.8 76.8 0 0 0-29.184 0 83.2 83.2 0 0 0-67.584 71.68c0 30.72 30.464 48.64 68.096 40.192a83.2 83.2 0 0 0 67.84-70.912v-157.44z" fill="#FC611F"></path></svg>