<svg id="channel-vlog" viewBox="0 0 1024 1024"><path d="M824.195 570.693V462.049l49.951-49.951v200.704a74.927 74.927 0 0 1-44.956 68.682L574.44 792.601l-142.636-30.795 377.582-168.31a24.976 24.976 0 0 0 14.81-22.803z" fill="#7C79EE"></path><path d="M799.22 312.195h49.95q24.976 0 24.976 24.976v124.878q0 24.975-24.975 24.975H799.22q-24.976 0-24.976-24.975V337.17q0-24.976 24.976-24.976Z" fill="#7C79EE"></path><path d="M249.756 162.341h449.561q99.903 0 99.903 99.903V512q0 99.902-99.903 99.902h-449.56q-99.903 0-99.903-99.902V262.244q0-99.903 99.902-99.903Z" fill="#9796ED"></path><path d="M299.707 212.293H624.39q49.951 0 49.951 49.95V512q0 49.951-49.95 49.951H299.706q-49.95 0-49.95-49.951V262.244q0-49.951 49.95-49.951Z" fill="#FFE494"></path><path d="m438.447 300.606 104.822 69.907a24.976 24.976 0 0 1 0 41.56l-104.822 69.881a24.976 24.976 0 0 1-38.837-20.78V321.412a24.976 24.976 0 0 1 38.837-20.805z" fill="#7C79EE"></path><path d="M474.537 649.366h99.902a49.951 49.951 0 0 1 49.951 49.951v137.366a49.951 49.951 0 0 1-49.951 49.951h-99.902a49.951 49.951 0 0 1-49.952-49.951V699.317a49.951 49.951 0 0 1 49.952-49.951z" fill="#9796ED"></path></svg>