<svg id="channel-spread" viewBox="0 0 1024 1024"><defs><style>@font-face{font-family:element-icons;src:url(chrome-extension://moombeodfomdpjnpocobemoiaemednkg/fonts/element-icons.woff) format("woff"),url("chrome-extension://moombeodfomdpjnpocobemoiaemednkg/fonts/element-icons.ttf ") format("truetype")}</style></defs><path d="M324.557 660.316v56.832c0 30.193 24.473 54.672 54.671 54.672 30.193 0 54.672-24.474 54.672-54.672v-14.05l-109.343-42.782zm186.47 72.965c-7.961 65.72-63.933 116.639-131.799 116.639-73.328 0-132.772-59.443-132.772-132.772V629.75L129.3 583.91v.067a39.05 39.05 0 1 1-78.1 0V411.72a39.05 39.05 0 0 1 78.1 0v.066l499.85-195.594V192.65a39.05 39.05 0 1 1 78.106 0v610.396a39.05 39.05 0 1 1-78.105 0v-23.541L511.032 733.28z" fill="#FFD778"></path><path d="M808.786 458.732H933.75a39.05 39.05 0 0 1 39.05 39.05v.133a39.05 39.05 0 0 1-39.05 39.05H808.786a39.05 39.05 0 0 1-39.05-39.05v-.133a39.05 39.05 0 0 1 39.05-39.05zm-3.313 130.437 108.258 62.612a39.05 39.05 0 0 1 14.284 53.3l-.056.102a39.045 39.045 0 0 1-53.376 14.3l-108.257-62.618a39.05 39.05 0 0 1-14.285-53.299l.056-.097a39.045 39.045 0 0 1 53.376-14.3zm-39.147-250.343 108.257-62.612a39.045 39.045 0 0 1 53.376 14.305l.051.092a39.05 39.05 0 0 1-14.285 53.305l-108.247 62.612a39.045 39.045 0 0 1-53.376-14.3l-.05-.097a39.05 39.05 0 0 1 14.279-53.3z" fill="#FB813A"></path></svg>