<svg id="channel-documentary" viewBox="0 0 1024 1024"><path d="M404.9 386.765c-70.897-2.565-143.347 12.06-196.65 38.182-48.848 23.963-117.63 89.46-121.928 135.563h735.323c-3.217 0-12.015-9.428-14.738-11.52-5.017-3.825-9.742-7.808-14.76-11.543-11.902-8.91-24.66-16.897-37.147-24.975a1040.175 1040.175 0 0 0-77.063-45.585c-52.47-27.945-107.865-50.805-165.69-65.002a533.88 533.88 0 0 0-107.347-15.12" fill="#47CFE5"></path><path d="M744.605 489.163c-12.713 32.31-136.71 36.765-181.395 36.765H137.802c-15.232 0-29.767 5.197-39.757 14.265-9.9 8.977-14.107 20.767-11.7 32.355 0 .112 0 .27.09.337 9.293 43.672 35.73 83.34 76.365 114.683 1.62 1.26 3.263 2.52 4.928 3.735 106.74 78.457 292.522 81.157 423.45 43.875 41.445-11.79 80.865-28.17 115.177-49.635 38.992-24.39 78.795-57.308 102.308-91.733 3.465-5.062 41.22-61.177 41.962-60.885l-106.02-43.762z" fill="#47CFE5"></path><path d="m918.058 505.317-29.88-17.077a75.082 75.082 0 0 0-70.11-2.138 75.375 75.375 0 0 0-37.418-59.354l-29.925-17.078a11.453 11.453 0 0 0-15.66 4.275l-7.83 13.703a59.063 59.063 0 0 0 21.96 80.572l15.795 9.045a.045.045 0 0 1-.045.045l51.48 29.43.045-.045 17.46 9.99a59.085 59.085 0 0 0 80.573-21.938l7.83-13.725a11.543 11.543 0 0 0-4.275-15.705" fill="#2BBAE4"></path><path d="M654.515 712.497C351.327 720.867 266.3 564.425 266.3 564.425H85.782a31.995 31.995 0 0 0 .63 8.46c9.293 43.672 35.73 83.34 76.365 114.683 1.62 1.282 3.263 2.52 4.928 3.735 106.717 78.457 292.5 81.18 423.428 43.875a509.692 509.692 0 0 0 63.382-22.68" fill="#E5E6E6"></path><path d="M654.515 712.497c-65.16 1.8-120.15-4.41-166.567-14.242-49.005-10.373-26.168 59.31-3.218 56.79 37.485-4.072 73.665-10.598 106.403-19.913a502.358 502.358 0 0 0 63.382-22.635" fill="#E4E5E4"></path><path d="M407.127 674.923c21.578 69.84 69.705 117.652 116.775 113.647 3.735-.338 6.233-4.072 5.513-7.74L504.98 655.212a5.715 5.715 0 0 0-6.682-4.5l-86.715 16.898a5.782 5.782 0 0 0-4.455 7.313" fill="#47CFE5"></path><path d="M441.238 614.712a29.295 29.295 0 1 1-58.613.023 29.295 29.295 0 0 1 58.612-.022" fill="#0099BC"></path><path d="M252.597 310.467a64.282 64.282 0 0 1 64.305-64.102c18.81 0 35.73 8.122 47.52 21.127a64.17 64.17 0 0 1 111.713 42.975 16.56 16.56 0 0 1-16.582 16.583 16.56 16.56 0 0 1-16.605-16.583 31.05 31.05 0 0 0-61.988-2.16h-.18l.113 77.468a16.582 16.582 0 1 1-33.188 0v-75.397c0-17.033-13.928-30.938-30.96-30.938a31.05 31.05 0 0 0-31.027 31.027 16.56 16.56 0 1 1-33.12 0" fill="#47CFE5"></path><path d="M364.332 408.027a22.253 22.253 0 0 1-22.207-22.23V310.4a25.358 25.358 0 1 0-50.715.09 22.23 22.23 0 0 1-44.415 0c0-38.453 31.365-69.75 69.907-69.75a69.75 69.75 0 0 1 47.52 18.765 70.2 70.2 0 0 1 47.61-18.765c38.453 0 69.75 31.297 69.75 69.75a22.23 22.23 0 0 1-44.437 0 25.425 25.425 0 0 0-50.738-1.778l-.157 2.385.09 74.7a22.253 22.253 0 0 1-22.208 22.23zm-47.542-134.19c20.16 0 36.562 16.403 36.562 36.563v75.42a10.98 10.98 0 1 0 21.915 0l-.09-83.093h.923a36.742 36.742 0 0 1 35.82-28.867c20.205 0 36.653 16.447 36.653 36.652a10.98 10.98 0 0 0 21.937 0c0-32.265-26.235-58.5-58.5-58.5-16.448 0-32.288 7.02-43.447 19.305l-4.163 4.545-4.162-4.612a58.635 58.635 0 0 0-43.336-19.283 58.635 58.635 0 0 0-58.657 58.5 10.957 10.957 0 0 0 21.915 0 36.675 36.675 0 0 1 36.63-36.63z" fill="#47CFE5"></path><path d="M389.87 621.283h-66.33a47.79 47.79 0 0 1-35.032-15.593l-23.715-25.695a28.575 28.575 0 0 0-20.88-9.293H91.048a6.525 6.525 0 1 1 0-13.095h152.887c11.453 0 22.567 4.928 30.488 13.523l23.715 25.718c6.66 7.2 15.93 11.34 25.425 11.34h66.33a6.525 6.525 0 1 1-.023 13.095" fill="#0099BC"></path></svg>