<svg id="channel-hot-topic" fill="none" viewBox="0 0 20 20"><path fill-rule="evenodd" clip-rule="evenodd" d="M6.272 1.684a.75.75 0 0 1 1.044.188l1.458 2.1a.762.762 0 0 1 .024.037 82.158 82.158 0 0 1 2.404 0 .763.763 0 0 1 .024-.037l1.458-2.1a.75.75 0 0 1 1.232.856l-.921 1.326c.886.031 1.68.073 2.348.115a3.202 3.202 0 0 1 3.016 2.962c.075 1.013.141 2.29.141 3.669 0 1.384-.066 2.656-.142 3.659a3.183 3.183 0 0 1-2.962 2.94c-1.36.101-3.253.201-5.396.201s-4.035-.1-5.396-.2a3.184 3.184 0 0 1-2.962-2.942A49.068 49.068 0 0 1 1.5 10.8c0-1.378.066-2.656.141-3.668a3.203 3.203 0 0 1 3.016-2.963 86.38 86.38 0 0 1 2.348-.115l-.921-1.326a.75.75 0 0 1 .188-1.044ZM6 8.427a.6.6 0 0 0 0 1.2h1.859l-.32 2.345h-1.54a.6.6 0 1 0 0 1.2h1.376l-.197 1.447a.6.6 0 0 0 1.19.162l.218-1.609h1.98l-.197 1.447a.6.6 0 1 0 1.189.162l.22-1.609H13.8a.6.6 0 1 0 0-1.2H11.94l.32-2.345H13.8a.6.6 0 1 0 0-1.2h-1.376l.198-1.446a.6.6 0 1 0-1.19-.162l-.219 1.608h-1.98l.198-1.446a.6.6 0 0 0-1.19-.162l-.219 1.608H6Zm5.05 1.2-.32 2.345H8.75l.32-2.345h1.98Z" fill="currentColor"></path></svg>