<svg id="channel-popular" fill="none" viewBox="0 0 20 20"><rect opacity=".01" width="20" height="20" fill="#fff"></rect><path d="M5.6 3.45a.45.45 0 1 1 .9 0v2.7a.45.45 0 1 1-.9 0v-2.7ZM13.5 3.45a.45.45 0 0 1 .9 0v2.7a.45.45 0 0 1-.9 0v-2.7Z" fill="#FED443"></path><path fill-rule="evenodd" clip-rule="evenodd" d="M12.75 4.8h-5.5v1.35a1.2 1.2 0 0 1-2.4 0V4.8H4a2 2 0 0 0-2 2v8.6a2 2 0 0 0 2 2h12a2 2 0 0 0 2-2V6.8a2 2 0 0 0-2-2h-.85v1.35a1.2 1.2 0 0 1-2.4 0V4.8Zm.75 0v1.35a.45.45 0 0 0 .9 0V4.8h-.9ZM5.6 6.15V4.8h.9v1.35a.45.45 0 1 1-.9 0Z" fill="#FED443"></path><path d="M10.1 10.74a.54.54 0 0 1 .54-.54h4.02a.54.54 0 1 1 0 1.08h-4.02a.54.54 0 0 1-.54-.54ZM10.1 13.44a.54.54 0 0 1 .54-.54h4.02a.54.54 0 0 1 0 1.08h-4.02a.54.54 0 0 1-.54-.54Z" fill="#F4B828"></path><path fill-rule="evenodd" clip-rule="evenodd" d="m6.805 11.06 1.348.184c.123 0 .184.184.123.307l-1.043 1.042.246 1.41c0 .121-.123.244-.246.184l-1.225-.614-1.164.614c-.123.06-.305-.063-.245-.184l.245-1.41-.981-.981c-.121-.123-.06-.305.123-.305l1.348-.184.613-1.227c.08-.183.184-.183.245-.06l.613 1.225Z" fill="#F4B828"></path></svg>