<svg id="channel-read" viewBox="0 0 1024 1024"><path d="M778.496 142.08h-537.6a56.832 56.832 0 0 0-60.16 54.016v630.528a56.832 56.832 0 0 0 59.136 54.016h537.6a56.832 56.832 0 0 0 59.136-54.016V196.096a56.832 56.832 0 0 0-59.136-54.016z" fill="#54E2E2"></path><path d="M298.496 679.168h421.376a25.6 25.6 0 0 0 0-52.736H298.496a25.6 25.6 0 1 0 0 52.736zm421.376 53.76H298.496a25.6 25.6 0 1 0 0 52.736h421.376a25.6 25.6 0 0 0 0-52.736zM352.256 237.056h314.112q80.128 0 80.128 80.128v154.368q0 80.128-80.128 80.128H352.256q-80.128 0-80.128-80.128V317.184q0-80.128 80.128-80.128Z" fill="#23ADE5"></path><path d="M355.584 361.472a49.408 49.408 0 1 0 98.816 0 49.408 49.408 0 1 0-98.816 0ZM375.552 551.936l120.832-144.384a44.544 44.544 0 0 1 68.352 0l120.832 144.384z" fill="#2EC3E5"></path></svg>