<svg id="channel-animal" viewBox="0 0 1024 1024"><path d="M517.376 465.152a144.924 144.924 0 0 1 137.529 99.214c1.28 3.926 2.275 7.85 2.901 11.805a132.267 132.267 0 0 1-14.279 263.765H380.473a132.267 132.267 0 0 1-14.25-263.794 74.044 74.044 0 0 1 2.872-11.776 144.924 144.924 0 0 1 137.529-99.214h10.752zm-96.683-47.047c50.262-3.783 85.618-59.165 79.047-123.733-6.599-64.57-52.65-113.892-102.912-110.109-50.232 3.755-85.617 59.165-79.018 123.733 6.599 64.57 52.65 113.864 102.912 110.08zm182.614 0c50.233 3.755 96.284-45.511 102.883-110.109 6.6-64.568-28.786-119.978-79.018-123.733-50.262-3.783-96.313 45.511-102.912 110.08-6.6 64.569 28.785 119.979 79.018 123.733zM717.426 551.14c39.082 21.816 96.91-4.267 129.138-58.226 32.256-53.96 26.709-115.37-12.374-137.188-39.11-21.817-96.938 4.267-129.166 58.226-32.256 53.96-26.71 115.37 12.402 137.188zm-410.852 0c39.111-21.817 44.658-83.229 12.402-137.188-32.228-53.96-90.055-80.043-129.138-58.226-39.11 21.817-44.658 83.229-12.43 137.188 32.256 53.959 90.084 80.042 129.166 58.226z" fill="#FB7299"></path><path d="M621.511 113.778c76.231-.939 138.468 74.012 149.504 173.34 37.746-13.312 75.861-12.914 107.293 4.324 70.712 38.77 80.753 147.968 22.442 243.91a272.327 272.327 0 0 1-71.11 78.337c9.158 22.87 14.221 47.843 14.221 73.984v23.438a199.111 199.111 0 0 1-199.11 199.111H379.25a199.111 199.111 0 0 1-199.111-199.11v-23.44c0-26.168 5.063-51.114 14.222-74.012a272.1 272.1 0 0 1-71.111-78.307c-58.311-95.943-48.27-205.141 22.442-243.911 31.432-17.238 69.547-17.636 107.321-4.352 11.008-99.3 73.245-174.25 149.476-173.312 42.41.54 81.152 24.462 109.511 62.777 28.36-38.287 67.1-62.237 109.511-62.777z" fill="#FFD7E7"></path><path d="M512 465.152a141.198 141.198 0 0 1 134.741 98.958l.086.256c1.905 6.087 3.015 12.231 3.356 18.29a132.267 132.267 0 0 1-9.728 264.164h-256.91a132.267 132.267 0 0 1-9.671-264.192l-.2 4.58a76.853 76.853 0 0 1 3.5-22.842l.085-.284A141.198 141.198 0 0 1 512 465.18zm-91.307-47.047c50.262-3.783 85.618-59.165 79.047-123.733-6.599-64.57-52.65-113.892-102.912-110.109-50.232 3.755-85.617 59.165-79.018 123.733 6.599 64.57 52.65 113.864 102.912 110.08zm182.614 0c50.233 3.755 96.284-45.511 102.883-110.109 6.6-64.568-28.786-119.978-79.018-123.733-50.262-3.783-96.313 45.511-102.912 110.08-6.6 64.569 28.785 119.979 79.018 123.733zM717.426 551.14c39.082 21.816 96.91-4.267 129.138-58.226 32.256-53.96 26.709-115.37-12.374-137.188-39.11-21.817-96.938 4.267-129.166 58.226-32.256 53.96-26.71 115.37 12.402 137.188zm-410.852 0c39.111-21.817 44.658-83.229 12.402-137.188-32.228-53.96-90.055-80.043-129.138-58.226-39.11 21.817-44.658 83.229-12.43 137.188 32.256 53.959 90.084 80.042 129.166 58.226z" fill="#FB7299"></path></svg>