<svg id="channel-blackroom" viewBox="0 0 1024 1024"><path d="M0 0h1024v1024H0z" fill="none"></path><path d="M874.675 156.595c14.848 0 27.136 11.187 28.8 25.6l.205 3.405v335.949c0 14.873-11.213 27.136-25.626 28.825l-3.379.18H697.702l-54.476 54.502a29.03 29.03 0 0 1-35.354 4.429l-2.944-2.023-2.74-2.406-54.527-54.528-134.912.026c-13.747 0-25.242-9.55-28.263-22.35l-.563-3.276-.205-3.38V382.567H370.74c-13.721 0-25.216-9.523-28.237-22.348l-.563-3.252-.205-3.404V185.6c0-14.874 11.213-27.136 25.626-28.826l3.38-.179h503.935z" fill="#AAF6C4"></path><path d="M755.2 268.8c18.611 0 33.92 14.003 36.02 32.026l.255 4.25v435.2c0 18.585-14.003 33.92-32.051 36.018l-4.224.256H422.733L287.36 878.08c-21.683 16.256-51.763 3.738-57.165-20.992l-.665-4.02-.205-3.993v-72.55h-54.4c-17.152 0-31.54-11.93-35.303-27.955l-.716-4.096-.256-4.199v-435.2c0-18.611 14.028-33.945 32.05-36.019l4.225-.256H755.2z" fill="#59D498"></path><path d="M392.525 563.2a32 32 0 0 1 3.277 63.846l-3.277.154h-108.8a32 32 0 0 1-3.251-63.846l3.25-.154h108.8zm108.8-145.075a32 32 0 0 1 3.277 63.846l-3.277.154h-217.6a32 32 0 0 1-3.251-63.821l3.25-.18h217.6z" fill="#FFF"></path></svg>