<svg id="channel-cinephile" viewBox="0 0 1024 1024"><path d="M226.816 201.728h571.136q79.616 0 79.616 79.616v458.24q0 79.616-79.616 79.616H226.816q-79.616 0-79.616-79.616v-458.24q0-79.616 79.616-79.616Z" fill="#9796ED"></path><path d="M222.976 269.312h77.056v57.856h-77.056zm167.168 0H467.2v57.856h-77.056zm167.168 0h77.056v57.856h-77.056zm167.168 0h77.056v57.856H724.48zM222.976 693.76h77.056v57.856h-77.056zm167.168 0H467.2v57.856h-77.056zm167.168 0h77.056v57.856h-77.056zM147.2 375.296h730.368v270.08H147.2z" fill="#7B78EA"></path><path d="m544.721 506.356 2.535-2.535q23.351-23.351 46.703 0l199.664 199.665q23.351 23.351 0 46.703l-2.534 2.534q-23.352 23.351-46.703 0L544.72 553.059q-23.351-23.352 0-46.703Z" fill="#FFD043"></path><path d="M708.352 418.816h-25.6v-24.32a13.568 13.568 0 0 0-13.568-13.568H665.6a13.312 13.312 0 0 0-13.312 13.568v24.32h-25.6a13.568 13.568 0 0 0-13.568 13.568v5.632a13.568 13.568 0 0 0 13.568 13.568h25.6v24.32a13.312 13.312 0 0 0 13.312 13.568h5.632a13.568 13.568 0 0 0 13.568-13.568v-24.32h25.6a13.312 13.312 0 0 0 13.312-13.568v-5.632a13.312 13.312 0 0 0-15.36-13.568zm-190.464 0h-25.6v-24.32a13.312 13.312 0 0 0-13.312-13.568h-5.632a13.568 13.568 0 0 0-13.568 13.568v24.32H435.2a13.312 13.312 0 0 0-13.312 13.568v5.632a13.312 13.312 0 0 0 13.312 13.568h25.6v24.32a13.568 13.568 0 0 0 13.568 13.568H480a13.312 13.312 0 0 0 13.312-13.568v-24.32h25.6a13.312 13.312 0 0 0 13.312-13.568v-5.632a13.312 13.312 0 0 0-14.336-13.568zm-24.32 153.344h-18.432v-18.432a10.24 10.24 0 0 0-10.24-10.24H460.8a10.24 10.24 0 0 0-10.24 10.24v18.432h-18.432a10.24 10.24 0 0 0-10.24 10.24v4.352a10.24 10.24 0 0 0 10.24 10.24h18.432V614.4a10.24 10.24 0 0 0 10.24 10.24h4.352a10.24 10.24 0 0 0 10.24-10.24v-18.432h18.432a10.24 10.24 0 0 0 10.24-10.24v-4.352a10.24 10.24 0 0 0-10.496-9.216z" fill="#FFD778"></path></svg>