<svg id="channel-zongyi" viewBox="0 0 1024 1024"><path d="M25.115 625.015c127-67.634 201.653-43.033 188.69 73.103l-.724 5.894c-13.961 104.648 52.674 162.367 81.945 128.3l1.698-2.123a24.976 24.976 0 1 1 40.211 29.646c-28.747 39.012-82.12 39.936-122.33 6.444-39.312-32.768-59.442-90.661-51.95-161.018l1.449-12.088.8-7.992c3.695-46.13-12.14-59.967-61.416-41.76l-8.517 3.347-9.166 3.922-9.79 4.495-10.49 5.145-11.114 5.695-5.844 3.072a24.976 24.976 0 1 1-23.477-44.082z" fill="#EC0000"></path><path d="m419.355 437.872 237.268 148.256-217.887 254.8a79.922 79.922 0 0 1-103.1 15.835l-18.806-11.738a79.922 79.922 0 0 1-30.97-99.628l133.52-307.525z" fill="#FF5C00"></path><path d="M385.488 416.718 690.49 607.282l-92.335 72.38c-29.621 20.454-77.899 9.74-144.859-32.094-66.984-41.86-97.78-80.572-92.384-116.137l24.576-114.713z" fill="#EC0000"></path><path d="M432.167 681.484a26.524 26.524 0 0 1 6.569 39.187l-19.107 23.577a22.828 22.828 0 0 1-38.412-23.976l12.862-27.499a26.524 26.524 0 0 1 38.088-11.289z" fill="#FFD3A5"></path><path d="M391.831 255.75c-76.025 121.631-39.036 281.9 82.62 357.9 121.656 76.026 281.924 39.038 357.925-82.619 76.026-121.63 39.037-281.9-82.62-357.9-121.655-76.026-281.899-39.037-357.925 82.62z" fill="#FF962A"></path><path d="m749.757 173.106 5.145 3.322a258.997 258.997 0 0 1 112.165 167.336 77.55 77.55 0 0 1-11.413 36.89c-35.066 56.17-139.364 54.271-232.973-4.222-93.584-58.443-140.987-151.377-105.897-207.547 6.894-11.04 16.484-19.856 28.148-26.4a259.047 259.047 0 0 1 204.8 30.621z" fill="#FFB468"></path><path d="M842.317 513.698a264.242 264.242 0 0 1-9.94 17.333c-76.026 121.657-236.27 158.645-357.901 82.645-121.681-76.026-158.67-236.27-82.67-357.926a278.773 278.773 0 0 1 11.24-16.559c-62.44 119.159-23.353 268.139 92.584 340.593 114.713 71.68 263.718 42.883 344.09-62.614l2.597-3.497z" fill="#FF6B18"></path><path d="M380.168 236.694c-49.702 79.522 16.234 210.394 147.231 292.24 131.022 81.87 277.53 83.743 327.23 4.22 16.434-26.299 20.23-58.193 13.188-92.11 13.986 45.955 11.189 90.787-12.138 128.125-58.468 93.559-219.686 98.33-360.049 10.615-140.363-87.715-206.748-234.696-148.28-328.28 23.477-37.588 62.889-59.816 110.717-67.309-33.967 8.492-61.315 25.975-77.9 52.499z" fill="#FFB468"></path><path d="m458.017 184.22 2.298-1.798c-26.824 21.054-43.833 37.338-51.05 48.877-43.858 70.182 17.657 187.742 139.313 263.743 121.657 76.025 253.952 79.572 297.81 9.39 7.742-12.388 14.86-33.642 21.354-63.787 7.143 34.041 3.396 66.085-13.112 92.51-49.702 79.522-196.209 77.673-327.23-4.222-131.023-81.845-196.934-212.717-147.232-292.24 16.584-26.523 43.932-44.006 77.849-52.473z" fill="#FFD3A5"></path></svg>