<svg id="channel-broadcast" viewBox="0 0 1024 1024"><path d="M665.6 852.48H194.56c-38.4 0-66.56-30.72-66.56-69.12v-281.6c0-38.4 30.72-69.12 66.56-69.12H665.6c38.4 0 66.56 30.72 66.56 69.12v284.16c0 35.84-30.72 66.56-66.56 66.56M688.768 282.138c0 76.8-61.44 138.24-135.68 138.24s-133.12-61.44-133.12-138.24 61.44-138.24 135.68-138.24 133.12 64 133.12 138.24" fill="#FE6998"></path><path d="M384 332.8c0 48.64-38.4 89.6-87.04 89.6s-87.04-38.4-87.04-89.6 38.4-89.6 87.04-89.6S384 284.16 384 332.8" fill="#FF5B61"></path><path d="m414.72 558.08 115.2 69.12c15.36 10.24 15.36 30.72 0 40.96l-115.2 69.12c-15.36 10.24-35.84-2.56-35.84-20.48V578.56c2.56-17.92 20.48-28.16 35.84-20.48" fill="#FDDE80"></path><path d="m790.912 511.59-168.96 99.84c-30.72 17.92-30.72 66.56 0 84.48l168.96 99.84c30.72 17.92 71.68-5.12 71.68-43.52V555.11c0-38.4-38.4-61.44-71.68-43.52" fill="#FE6998"></path></svg>