<svg id="channel-car" viewBox="0 0 1024 1024"><path d="M210.688 588.8h25.6a51.2 51.2 0 0 1 51.2 45.568l14.08 128A51.2 51.2 0 0 1 256 819.2h-30.976a51.2 51.2 0 0 1-51.2-45.568l-14.08-128A51.2 51.2 0 0 1 204.8 588.8zm577.536 0h25.6a51.2 51.2 0 0 1 51.2 51.2 41.984 41.984 0 0 1 0 5.632l-14.08 128a51.2 51.2 0 0 1-51.2 45.568h-25.6a51.2 51.2 0 0 1-51.2-51.2 41.984 41.984 0 0 1 0-5.632l14.08-128a51.2 51.2 0 0 1 51.2-45.568zm118.272-195.84a38.656 38.656 0 0 1-25.6 48.128l-25.6 7.424a38.4 38.4 0 0 1-22.528-73.472l25.6-7.424a38.144 38.144 0 0 1 48.128 25.344zm-691.2 29.952a38.4 38.4 0 0 1-47.872 25.6l-25.6-7.424a38.656 38.656 0 0 1-25.6-48.128 38.144 38.144 0 0 1 47.872-25.6l25.6 7.424a38.4 38.4 0 0 1 25.6 48.128z" fill="#23ADE5"></path><path d="M292.608 201.216A1109.76 1109.76 0 0 1 512 179.2a1165.568 1165.568 0 0 1 224 22.016 51.2 51.2 0 0 1 38.144 32L870.4 486.4v230.4a25.6 25.6 0 0 1-25.6 25.6H179.2a25.6 25.6 0 0 1-25.6-25.6V486.4L256 232.704a51.2 51.2 0 0 1 36.608-31.488z" fill="#48CFE5"></path><path d="M230.4 512h102.4q25.6 0 25.6 25.6v25.6q0 25.6-25.6 25.6H230.4q-25.6 0-25.6-25.6v-25.6q0-25.6 25.6-25.6ZM691.2 512h102.4q25.6 0 25.6 25.6v25.6q0 25.6-25.6 25.6H691.2q-25.6 0-25.6-25.6v-25.6q0-25.6 25.6-25.6Z" fill="#FFF"></path><path d="M327.68 270.848A1000.96 1000.96 0 0 1 499.712 256a1429.248 1429.248 0 0 1 196.864 15.36 25.6 25.6 0 0 1 20.992 18.176l39.68 134.656a25.6 25.6 0 0 1-17.408 31.744 24.064 24.064 0 0 1-9.472 0q-125.184-12.032-230.4-12.032a1894.4 1894.4 0 0 0-204.8 11.264 25.6 25.6 0 0 1-28.16-22.784 25.6 25.6 0 0 1 0-9.984L307.2 288.768a25.6 25.6 0 0 1 20.48-17.92z" fill="#FDDE80"></path><path d="M614.4 358.4a102.4 102.4 0 0 0-100.864 86.784h51.2a51.2 51.2 0 0 1 99.072 5.12l51.2 4.352A102.4 102.4 0 0 0 614.4 358.4z" fill="#23ADE5"></path></svg>