<svg id="channel-gaoxiao" viewBox="0 0 1024 1024"><path d="M512 131.282c-210.288 0-380.718 170.43-380.718 380.718S301.712 892.718 512 892.718 892.718 722.288 892.718 512c0-209.841-170.43-380.718-380.718-380.718zm0 675.998c-132.359 0-239.511-102.715-239.511-229.744 0-110.697 107.126-42.64 239.511-42.64 132.359 0 239.511-65.825 239.511 42.614C751.065 704.118 643.912 807.253 512 807.253z" fill="#FFD46A"></path><path d="M512 807.28c-132.359 0-239.511-102.715-239.511-229.744 0-110.697 107.126-42.64 239.511-42.64 132.359 0 239.511-65.825 239.511 42.614C751.065 704.118 643.912 807.253 512 807.253z" fill="#FFF"></path><path d="M511.79 667.097c-61.571 0-112.955 30.877-126.687 72.651a220.554 220.554 0 0 0 253.794 0C624.3 698 572.915 667.097 511.79 667.097zM280.839 304.102a26.256 26.256 0 0 1 32.111-13.654l2.862 1.13 127.344 60.205a26.256 26.256 0 0 1 3.36 45.608l-2.966 1.706-122.224 60.206a26.256 26.256 0 0 1-25.863-45.607l2.652-1.497 73.44-36.207-78.192-36.943a26.256 26.256 0 0 1-13.653-32.112l1.129-2.835zm463.662 0a26.256 26.256 0 0 0-32.112-13.654l-2.836 1.13-127.37 60.205a26.256 26.256 0 0 0-3.334 45.608l2.94 1.706 122.224 60.206a26.256 26.256 0 0 0 25.889-45.607l-2.678-1.497-73.413-36.207 78.191-36.943a26.256 26.256 0 0 0 13.654-32.112l-1.155-2.835z" fill="#FD621D"></path></svg>