<svg id="channel-vtuber" viewBox="0 0 1024 1024"><path d="M212.557 605.082c-.077 42.854-13.799 82.048-41.037 117.606-40.909 53.325-83.917 69.274-77.824 85.197 11.34 35.405 45.568 49.024 102.656 40.883 36.787 61.44 95.488 90.01 176.026 85.606 88.601-9.6 119.654-92.006 93.107-247.219l-252.903-82.048zm522.112-13.67a293.504 293.504 0 0 1-52.352 122.828c-40.448 55.706-31.386 56.934-25.344 73.6 7.782 21.453 24.013 50.048 48.742 85.811 80.205 26.931 158.362 13.056 234.496-41.574 30.95-25.344-15.974-57.267-51.942-136.602-10.317-22.784-5.069-88.013 15.77-195.66l-169.37 91.596z" fill="#23ADE5"></path><path d="m706.202 689.664 113.28-16.384c35.993-44.646 69.888-54.502 101.683-29.517 47.693 37.427 8.269 142.029-71.501 102.759-1.74 0-51.507 5.53-149.35 16.64l5.888-73.524zm-285.568 69.811a41.882 41.882 0 0 1 18.508 56.73l-36.096 69.709a43.136 43.136 0 0 1-57.548 18.764 41.882 41.882 0 0 1-18.484-56.73l36.045-69.708a43.136 43.136 0 0 1 57.575-18.765z" fill="#FFE6DF"></path><path d="M465.46 698.112c-35.508-.666-67.457 23.296-95.873 71.834-.051.358 18.1 20.172 54.451 59.468l-18.585 64.154c2.662 36.173 57.062 54.272 163.174 54.272s165.146-21.427 177.152-64.23l-30.72-93.236c50.79-1.126 76.211-7.424 76.211-18.841 0-17.152-27.673-97.536-27.673-115.328 0-11.853-26.445-5.632-79.309 18.688l-218.829 23.219z" fill="#47CFE5"></path><path d="m528.538 684.083 56.192-4.915 22.912 53.683c-23.962 27.955-38.35 41.805-43.085 41.523-6.375-.025-22.912-11.161-49.639-33.408l13.62-56.883z" fill="#FED878"></path><path d="m560.512 728.013-37.427 106.393 53.888 79.079 38.86-87.168z" fill="#FED878"></path><path d="M574.54 705.024c290.484-44.826 302.72-134.016 290.51-252.928-12.237-118.886-160.282-200.422-330.752-182.093-170.42 18.33-298.676 129.587-286.464 248.474 12.21 118.912 36.224 231.321 326.707 186.521z" fill="#FFE6DF"></path><path d="M388.02 350.848c25.65 24.32 31.743 31.411 85.452 58.445 105.14 42.752 245.811 9.344 192.205-92.928 19.533 43.417 96.256 99.763 131.43 118.502-8.755 137.216-15.565 200.781 8.755 209.101 19.584 6.707 83.584-40.064 102.119-171.187 19.712-239.463-231.783-433.152-347.955-354.304-276.276-94.515-476.8 224.87-420.378 440.09 30.72 113.689 139.392 207.923 174.746 182.348 24.806-17.92 3.276-148.429-35.047-228.864 48.717-40.448 68.71-57.625 108.672-161.177z" fill="#23ADE5"></path><path d="m337.306 490.163 2.38.359 129.357 29.184c13.159 2.944 16.896 19.353 7.424 27.904l-2.073 1.587L368.46 618.7a16.282 16.282 0 0 1-19.968-25.6l2.099-1.639 73.805-48.435-91.879-20.736a16.307 16.307 0 0 1-12.646-17.075l.358-2.38a16.307 16.307 0 0 1 17.076-12.673zM653.928 504.238a86.58 42.317 84 1 0 84.17-8.847 86.58 42.317 84 1 0-84.17 8.847Z" fill="#24A7DA"></path><path d="m625.254 565.632 2.407.256a16.282 16.282 0 0 1 13.235 18.867c-8.525 48.205-28.672 71.527-57.446 67.712a58.778 58.778 0 0 1-24.628-9.958l-1.33-.947-1.511 1.28c-28.621 22.912-55.885 15.052-71.04-22.63l-1.69-4.48a16.282 16.282 0 0 1 30.72-10.906l2.176 5.888c5.658 14.13 9.984 16.204 20.045 6.86l4.045-4.044 4.659-5.095a16.307 16.307 0 0 1 23.04-1.331l1.843 1.971c2.867 3.584 11.853 10.291 17.946 11.085 7.526 1.024 15.232-7.885 21.069-41.062a16.307 16.307 0 0 1 16.46-13.466z" fill="#24A7DA"></path></svg>