<svg id="channel-danjiyouxi" viewBox="0 0 1024 1024"><path d="M512 153.6h-.026q50.458 0 50.458 50.458v100.864q0 50.457-50.458 50.457H512q-50.458 0-50.458-50.457V204.058q0-50.458 50.458-50.458Z" fill="#FB952C"></path><path d="M637.056 254.49H386.944C219.187 254.49 83.2 390.477 83.2 558.234c0 167.73 135.987 303.718 303.744 303.718h250.112c167.757 0 303.744-135.987 303.744-303.718 0-167.757-135.987-303.744-303.744-303.744z" fill="#FFF"></path><path d="M637.056 254.49H386.944C219.187 254.49 83.2 390.477 83.2 558.234c0 167.73 135.987 303.718 303.744 303.718h250.112c167.757 0 303.744-135.987 303.744-303.718 0-167.757-135.987-303.744-303.744-303.744zM404.787 611.84h-35.712v35.712a35.738 35.738 0 0 1-71.475 0V611.84h-35.738a35.738 35.738 0 0 1 0-71.475H297.6v-35.738a35.738 35.738 0 0 1 71.475 0v35.738h35.738a35.738 35.738 0 0 1 0 71.475zm285.901 71.424a107.213 107.213 0 1 1 0-214.4 107.213 107.213 0 0 1 0 214.4z" fill="#F55E55"></path><path d="M639.923 576.102a53.606 53.606 0 1 0 107.213 0 53.606 53.606 0 0 0-107.213 0z" fill="#FB952C"></path></svg>