<svg id="channel-ent" viewBox="0 0 1024 1024"><path d="m570.647 415.186 30.592 30.592q36.204 36.204 0 72.408l-360.59 360.59q-36.204 36.204-72.408 0l-30.593-30.592q-36.203-36.204 0-72.407l360.59-360.591q36.205-36.204 72.409 0Z" fill="#FF8693"></path><path d="m369.92 543.744 137.472-137.472a38.912 38.912 0 0 1 54.528 0l48.384 48.64a38.4 38.4 0 0 1 0 54.528L472.32 647.424z" fill="#FC6376"></path><path d="m298.989 643.872 72.601 72.576q12.855 12.85.004 25.705l-1.628 1.63q-12.85 12.854-25.705.004l-72.602-72.576q-12.854-12.85-.004-25.705l1.629-1.63q12.85-12.854 25.705-.004Z" fill="#FFA9B1"></path><path d="M737.024 547.584a99.328 99.328 0 0 1 62.72-62.72l51.2-13.568A27.136 27.136 0 0 0 864 421.632L826.624 384a98.816 98.816 0 0 1-22.784-85.76l16.896-63.232c7.168-27.136-8.96-43.52-36.096-36.096l-63.232 16.896a98.816 98.816 0 0 1-85.76-23.04l-37.376-36.864a27.136 27.136 0 0 0-49.408 13.312l-13.824 51.2a97.792 97.792 0 0 1-62.464 62.72l-51.2 13.824a27.136 27.136 0 0 0-13.312 49.408L445.44 384a97.536 97.536 0 0 1 23.04 85.504l-16.896 63.232c-7.424 27.392 8.96 43.52 36.096 36.352l63.232-16.896a97.792 97.792 0 0 1 85.76 22.784l37.376 37.376a26.88 26.88 0 0 0 49.408-13.312z" fill="#FDDE80"></path><path d="m886.272 417.536-74.752-75.008 30.464-114.432a41.216 41.216 0 0 0-8.704-41.472 41.728 41.728 0 0 0-41.472-7.424l-114.432 30.72-74.752-76.032a41.728 41.728 0 0 0-39.424-13.312 41.216 41.216 0 0 0-28.416 31.488l-27.392 102.4L404.48 281.6a42.24 42.24 0 0 0-31.744 28.16 42.24 42.24 0 0 0 13.312 40.448l74.752 75.008-30.72 114.432a41.728 41.728 0 0 0 8.96 41.472 37.888 37.888 0 0 0 27.392 10.752 56.832 56.832 0 0 0 14.08-2.048l114.432-30.72 74.752 75.008a45.824 45.824 0 0 0 31.232 14.336 34.304 34.304 0 0 0 8.96 0 41.216 41.216 0 0 0 28.416-31.488l27.392-102.4 102.4-27.392a41.984 41.984 0 0 0 31.488-28.416 40.96 40.96 0 0 0-13.312-41.216zm-84.736-203.52h5.12a16.896 16.896 0 0 1 0 5.12l-25.6 93.696-72.96-73.728zm-32 139.776-34.56 128-128 34.56-102.4-102.4 34.56-128 128-34.56zm-199.424-192c0-2.56 1.792-4.096 1.792-4.608a9.984 9.984 0 0 1 4.096 3.072l59.648 59.648-87.296 23.296zM412.416 323.84 409.6 320a12.8 12.8 0 0 1 4.864-2.048l81.152-21.76L472.064 384zm58.368 230.4a18.944 18.944 0 0 1-5.12 0 17.92 17.92 0 0 1 0-5.12l25.6-93.696L563.2 528.64zm230.4 51.2c0 2.816-1.536 4.096-1.536 4.864a20.992 20.992 0 0 1-4.352-3.328l-59.392-59.392 87.296-23.552zm156.16-156.16-81.152 21.76L799.488 384l59.392 59.392a40.96 40.96 0 0 1 3.328 3.84 12.8 12.8 0 0 1-4.096 2.56z" fill="#FCC029"></path></svg>