<svg id="channel-tech" viewBox="0 0 1024 1024"><path d="M510.208 683.264H396.032l-50.688 209.408h329.472l-50.688-209.408h-113.92z" fill="#FFD778"></path><path d="M535.552 150.528v-28.16a25.6 25.6 0 1 0-51.2 0v28.16A271.872 271.872 0 0 0 239.36 420.096v97.28a25.6 25.6 0 0 0 26.88 26.88h487.936a25.6 25.6 0 0 0 25.6-26.88v-97.28a271.616 271.616 0 0 0-244.224-269.568z" fill="#48CFE5"></path><path d="M228.864 464.64h562.432q103.168 0 103.168 103.168v15.36q0 103.168-103.168 103.168H228.864q-103.168 0-103.168-103.168v-15.36q0-103.168 103.168-103.168Z" fill="#2CBAE5"></path><path d="M742.4 537.6a37.632 37.632 0 1 0 37.632 37.632A37.376 37.376 0 0 0 742.4 537.6zm-465.664 0a37.632 37.632 0 1 0 37.632 37.632 37.632 37.632 0 0 0-37.632-37.632z" fill="#FFD778"></path></svg>