<svg id="channel-love" viewBox="0 0 1024 1024"><path d="M131.56 512a380.44 380.44 0 1 0 760.88 0 380.44 380.44 0 1 0-760.88 0Z" fill="#00AEEC"></path><path d="M600.518 766.255c-13.183 0-22.6-11.3-22.6-22.6 0-92.286 75.335-167.62 169.503-167.62 13.184 0 22.6 11.3 22.6 22.6s-11.3 22.6-22.6 22.6c-67.801 0-124.302 54.618-124.302 122.42 0 13.183-9.417 22.6-22.6 22.6zm-177.036 0c-13.184 0-22.6-11.3-22.6-22.6 0-67.802-56.502-122.42-124.303-122.42-13.184 0-22.6-11.3-22.6-22.6s11.3-22.6 22.6-22.6c94.168 0 169.503 75.334 169.503 167.62 0 13.183-9.417 22.6-22.6 22.6zm-82.869-459.542c33.901-28.25 79.102-37.668 122.42-24.484 5.65 1.883 7.533 9.417 3.766 15.067l-62.151 62.151c-7.534 7.533-7.534 20.717 0 28.25 7.533 7.534 20.717 7.534 28.25 0l69.685-69.684c50.851-50.851 133.72-50.851 186.454 0 50.85 50.85 50.85 131.836 0 182.687L523.3 664.553c-7.533 7.533-18.833 7.533-24.484 0L325.546 495.05c-47.084-58.385-39.55-141.253 15.067-188.337z" fill="#FFF"></path></svg>