<svg id="channel-sports" viewBox="0 0 1024 1024"><path d="m497.894 517.862 23.885 29.261a58.573 58.573 0 0 1-5.606 80.051L241.946 880.742a47.718 47.718 0 0 1-65.613-.768 49.818 49.818 0 0 1-4.301-66.816l108.57-136.37 126.105-158.362a58.573 58.573 0 0 1 91.187-.564z" fill="#1BAD8B"></path><path d="M698.931 153.6a117.146 117.146 0 0 1 11.418 233.728l60.416 45.9c4.352 3.329 10.163 3.918 15.104 1.588l73.625-34.637a46.285 46.285 0 0 1 59.11 17.587 44.34 44.34 0 0 1-11.929 59.316l-125.952 90.265a58.573 58.573 0 0 1-65.945 1.562l-66.048-42.752-44.135 47.77 70.605 83.327a58.012 58.012 0 0 1 4.608 6.196l1.946 3.302a58.573 58.573 0 0 1-22.861 79.616L466.79 852.71a49.382 49.382 0 0 1-65.74-16.998 52.096 52.096 0 0 1 11.904-68.582l105.548-83.175-106.29-68.3-1.537-1.025a59.75 59.75 0 0 1-.896-.614l-13.824-7.168a58.573 58.573 0 0 1-23.296-82.278l71.68-118.887-30.72-13.824a14.643 14.643 0 0 0-14.336 1.331l-80.486 55.604a48.87 48.87 0 0 1-62.669-5.965 39.347 39.347 0 0 1 1.792-56.858l128.282-115.149a58.573 58.573 0 0 1 57.446-12.032l143.54 47.258A117.146 117.146 0 0 1 698.93 153.6z" fill="#57D59A"></path></svg>