<svg id="channel-manhua" viewBox="0 0 1024 1024"><path d="M738.629 807.087H260.446c-33.443-.075-60.541-28.997-60.641-64.712V397.312c.1-35.715 27.198-64.687 60.64-64.762H738.63c33.442.125 60.516 29.072 60.59 64.787V742.35c-.1 35.715-27.173 64.637-60.59 64.737" fill="#FFE494"></path><path d="M497.564 701.015A125.278 125.278 0 0 0 621.543 593.82a15.685 15.685 0 0 0-15.36-18.107H388.92a15.685 15.685 0 0 0-15.335 18.107 125.303 125.303 0 0 0 123.98 107.195" fill="#F6C435"></path><path d="M748.669 342.19c20.28-6.568 34.241-26.074 32.343-47.328a128.75 128.75 0 0 0-5.869-28.797c-35.39-109.043-205.4-151.552-379.73-94.957C221.085 227.728 108.47 362.02 143.86 471.065a130.061 130.061 0 0 0 12.188 26.724c10.989 18.332 33.717 25.9 53.997 19.331l538.624-174.954z" fill="#9796ED"></path><path d="m363.82 146.732 10.065 31.044c4.47 13.737 19.381 21.305 33.093 16.859 13.736-4.47 21.354-19.356 16.883-33.093l-10.065-31.02a26.3 26.3 0 0 0-49.976 16.235m383.425 499.537-80.496-36.415s11.539 49.977 66.935 83.094c-.075.65-.25 1.249-.35 1.948-11.914 84.768 35.815 160.843 106.596 169.934 70.756 9.092 137.765-52.274 149.704-137.04 11.888-84.743-35.815-160.844-106.621-169.91-56.27-7.243-110.068 30.17-135.768 88.414z" fill="#9796ED"></path><path d="m890.38 647.293-17.757 88.913a5.894 5.894 0 0 1-5.795 4.745h-15.934a5.92 5.92 0 0 1-5.87-6.768l12.988-88.888a5.87 5.87 0 0 1 5.794-5.07h20.755c3.747 0 6.544 3.421 5.795 7.068m-20.53 121.98-2.673 14.611a5.894 5.894 0 0 1-5.794 4.846h-18.782a5.92 5.92 0 0 1-5.82-6.844l2.374-14.585a5.92 5.92 0 0 1 5.819-4.995h19.056a5.902 5.902 0 0 1 5.82 6.993" fill="#FFF"></path></svg>