<svg id="channel-information" viewBox="0 0 1024 1024"><path d="M760.686 768a21.943 21.943 0 0 0 19.836 21.84l2.107.103a21.943 21.943 0 0 0 21.84-19.836l.102-2.107V321.829h29.258a58.514 58.514 0 0 1 58.514 58.514V819.2a58.514 58.514 0 0 1-58.514 58.514H190.17a58.514 58.514 0 0 1-58.514-58.514V204.8a58.514 58.514 0 0 1 58.514-58.514h512a58.514 58.514 0 0 1 58.515 58.514V768z" fill="#7DD3E0"></path><path d="M248.686 234.057h394.971q29.257 0 29.257 29.257V526.63q0 29.257-29.257 29.257H248.686q-29.257 0-29.257-29.257V263.314q0-29.257 29.257-29.257Z" fill="#3DA9D3"></path><path d="m404.773 300.515 129.462 80.925a15.945 15.945 0 0 1 0 27.063l-129.462 80.925a15.945 15.945 0 0 1-24.43-13.531v-161.85a15.945 15.945 0 0 1 24.43-13.532z" fill="#FFD469"></path><path d="M248.686 614.4h394.971q29.257 0 29.257 29.257t-29.257 29.257H248.686q-29.257 0-29.257-29.257t29.257-29.257ZM248.686 731.429h219.428q29.257 0 29.257 29.257t-29.257 29.257H248.686q-29.257 0-29.257-29.257t29.257-29.257Z" fill="#3DA9D3"></path></svg>