<svg id="channel-knowledge" viewBox="0 0 1024 1024"><path d="M492.27 147.73A255.343 255.343 0 0 1 627.2 620.261v51.2a37.547 37.547 0 0 1-25.6 34.134H379.733a44.655 44.655 0 0 1-25.6-34.134v-51.2A256.649 256.649 0 0 1 492.271 147.73z" fill="#FFA200"></path><path d="M550.4 534.93v-76.8h51.2c46.61 0 51.2-26.787 51.2-42.668v-128c0-23.116-17.203-42.666-51.2-42.666H388.267c-42.104 0-59.734 21.111-59.734 42.666v76.8h102.4v-68.266H550.4v119.466h-51.2c-60.501-.563-76.8 24.406-76.8 42.667v76.8h128zm-62.669 24.532a59.733 59.733 0 1 1-59.733 59.734 59.733 59.733 0 0 1 59.733-59.734z" fill="#FFF0D3"></path><path d="M354.133 739.738H627.2v8.533a128 128 0 0 1-128 128h-17.067a128 128 0 0 1-128-128v-8.533z" fill="#5FB5EC"></path><path d="M746.667 210.662h119.466a17.067 17.067 0 0 1 0 34.134H746.667a17.067 17.067 0 0 1 0-34.134zM806.4 150.93a17.067 17.067 0 0 1 17.067 17.067v119.466a17.067 17.067 0 0 1-34.134 0V167.996a17.067 17.067 0 0 1 17.067-17.067zM157.867 662.93h119.466a17.067 17.067 0 0 1 0 34.132H157.867a17.067 17.067 0 0 1 0-34.133zm59.733-59.734a17.067 17.067 0 0 1 17.067 17.066V739.73a17.067 17.067 0 0 1-34.134 0V620.262a17.067 17.067 0 0 1 17.067-17.066z" fill="#FFE074"></path><path d="M200.533 662.938h34.134v34.133h-34.134zM789.333 210.67h34.134v34.134h-34.134z" fill="#FFE074"></path></svg>