<svg id="channel-live" viewBox="0 0 1024 1024"><path d="M392.448 275.911a92.416 92.416 0 1 1-184.832 0 92.416 92.416 0 0 1 184.832 0" fill="#23ADE5"></path><path d="m826.624 464.583-63.744 36.864v-48.64a72.206 72.206 0 0 0-71.68-71.936H190.72a72.192 72.192 0 0 0-71.936 71.936v295.424a71.936 71.936 0 0 0 71.936 71.936H691.2a71.936 71.936 0 0 0 71.936-71.936v-23.808l63.488 37.888a51.2 51.2 0 0 0 76.8-44.544V508.871a51.2 51.2 0 0 0-76.8-44.288m-253.696-95.232c79.46.142 143.986-64.156 144.128-143.616.142-79.46-64.156-143.986-143.616-144.128-79.26-.142-143.701 63.858-144.128 143.104-.427 79.46 63.644 144.213 143.104 144.64h.512" fill="#48CFE5"></path><path d="m425.216 512.967 124.16 71.936a25.6 25.6 0 0 1 0 42.496l-124.16 71.68a25.6 25.6 0 0 1-37.12-21.248v-143.36a25.6 25.6 0 0 1 37.12-21.504" fill="#FDDE80"></path></svg>