<svg id="creator-audio" fill="none" viewBox="0 0 25 24"><rect opacity=".01" x=".5" width="24" height="24" fill="#C4C4C4"></rect><path fill-rule="evenodd" clip-rule="evenodd" d="M5 2.5h10A4.5 4.5 0 0 1 19.5 7v4.5a1 1 0 1 0 2 0V7A6.5 6.5 0 0 0 15 .5H5A2.5 2.5 0 0 0 2.5 3v17A2.5 2.5 0 0 0 5 22.5h9.5a1 1 0 1 0 0-2H5a.5.5 0 0 1-.5-.5V3a.5.5 0 0 1 .5-.5Z" fill="#61666D"></path><path fill-rule="evenodd" clip-rule="evenodd" d="M21.561 14.348a1.5 1.5 0 0 0-2.121 0l-2.475 2.475a1 1 0 1 0 1.414 1.414l2.121-2.121 2.122 2.121a1 1 0 1 0 1.414-1.414l-2.475-2.475Z" fill="#61666D"></path><path fill-rule="evenodd" clip-rule="evenodd" d="M20.5 13.976a1 1 0 0 1 1 1V21.5a1 1 0 1 1-2 0v-6.524a1 1 0 0 1 1-1Z" fill="#61666D"></path><path d="M12.75 8.548v3" stroke="#61666D" stroke-width="2" stroke-linecap="round" stroke-linejoin="round"></path><path d="M8.75 12.922c0-.759.645-1.374 1.44-1.374h2.56v1.625c0 .76-.644 1.375-1.44 1.375h-1.12c-.795 0-1.44-.616-1.44-1.375v-.25Z" stroke="#61666D" stroke-width="2" stroke-linejoin="round"></path><path d="m15.25 9.048-2.5-.5" stroke="#61666D" stroke-width="2" stroke-linecap="round" stroke-linejoin="round"></path></svg>