<svg id="creator-note" fill="none" viewBox="0 0 25 24"><rect opacity=".01" width="24" height="24" fill="#C4C4C4"></rect><path fill-rule="evenodd" clip-rule="evenodd" d="M4.5 2.5h10A4.5 4.5 0 0 1 19 7v4.5a1 1 0 1 0 2 0V7A6.5 6.5 0 0 0 14.5.5h-10A2.5 2.5 0 0 0 2 3v17a2.5 2.5 0 0 0 2.5 2.5h9.761a1 1 0 1 0 0-2H4.5A.5.5 0 0 1 4 20V3a.5.5 0 0 1 .5-.5Z" fill="#61666D"></path><path fill-rule="evenodd" clip-rule="evenodd" d="M6 9a1 1 0 0 1 1-1h6a1 1 0 1 1 0 2H7a1 1 0 0 1-1-1ZM6 13a1 1 0 0 1 1-1h3a1 1 0 1 1 0 2H7a1 1 0 0 1-1-1ZM21.05 14.348a1.5 1.5 0 0 0-2.121 0l-2.475 2.475a1 1 0 1 0 1.414 1.414l2.122-2.121 2.12 2.121a1 1 0 1 0 1.415-1.414l-2.475-2.475Z" fill="#61666D"></path><path fill-rule="evenodd" clip-rule="evenodd" d="M19.99 13.976a1 1 0 0 1 1 1V21.5a1 1 0 1 1-2 0v-6.524a1 1 0 0 1 1-1Z" fill="#61666D"></path></svg>