<svg id="creator-magic" fill="none" viewBox="0 0 26 24"><path d="M24 0H0v24h24V0Z" fill="#fff" fill-opacity=".01"></path><path fill-rule="evenodd" clip-rule="evenodd" d="M23.06 14.348a1.5 1.5 0 0 0-2.12 0l-2.476 2.475a1 1 0 1 0 1.415 1.414L22 16.116l2.121 2.121a1 1 0 1 0 1.415-1.414l-2.475-2.475Z" fill="#61666D"></path><path fill-rule="evenodd" clip-rule="evenodd" d="M22 13.976a1 1 0 0 1 1 1V21.5a1 1 0 1 1-2 0v-6.524a1 1 0 0 1 1-1Z" fill="#61666D"></path><path d="M24 0H0v24h24V0Z" fill="#fff" fill-opacity=".01"></path><path d="M22 11.488c0-5.523-4.477-10-10-10s-10 4.477-10 10c0 5.522 4.477 10 10 10a9.955 9.955 0 0 0 4.954-1.312" stroke="#61666D" stroke-width="2" stroke-linecap="round" stroke-linejoin="round"></path><path d="M12 15.413c1.607 0 2.25-1.286 2.25-1.286h-4.5s.643 1.286 2.25 1.286ZM15.5 8.487v2M8.5 8.487v2" stroke="#61666D" stroke-width="2" stroke-linecap="round" stroke-linejoin="round"></path></svg>