<svg id="creator-video" fill="none" viewBox="0 0 26 24"><rect opacity=".01" x="1.556" width="24" height="24" fill="#C4C4C4"></rect><path fill-rule="evenodd" clip-rule="evenodd" d="M21.556 10.187a1 1 0 0 0-1 1v1.384a1 1 0 0 0 2 0v-1.384a1 1 0 0 0-1-1Zm-7 10.313a1 1 0 1 0 0 2h1a1 1 0 1 0 0-2h-1ZM22.61 15.348a1.5 1.5 0 0 0-2.122 0l-2.475 2.475a1 1 0 0 0 1.414 1.414l2.122-2.121 2.121 2.121a1 1 0 0 0 1.414-1.414l-2.475-2.475Z" fill="#61666D"></path><path fill-rule="evenodd" clip-rule="evenodd" d="M21.549 14.976a1 1 0 0 1 1 1V22.5a1 1 0 1 1-2 0v-6.524a1 1 0 0 1 1-1ZM3.209 5.5h16.347a1 1 0 0 1 1 1v5.391h2V6.5a3 3 0 0 0-3-3H3.209a3 3 0 0 0-3 3v13a3 3 0 0 0 3 3h12.244v-2H3.209a1 1 0 0 1-1-1v-13a1 1 0 0 1 1-1Z" fill="#61666D"></path><path d="M13.362 12.134a1 1 0 0 1 0 1.732l-3 1.732a1 1 0 0 1-1.5-.866v-3.464a1 1 0 0 1 1.5-.866l3 1.732Z" fill="#61666D"></path></svg>