<svg id="creator-manage" fill="none" viewBox="0 0 25 24"><rect opacity=".01" x=".5" width="24" height="24" fill="#C4C4C4"></rect><path fill-rule="evenodd" clip-rule="evenodd" d="M5 2.5h10A4.5 4.5 0 0 1 19.5 7v4.281a1 1 0 1 0 2 0V7A6.5 6.5 0 0 0 15 .5H5A2.5 2.5 0 0 0 2.5 3v17A2.5 2.5 0 0 0 5 22.5h5.5a1 1 0 1 0 0-2H5a.5.5 0 0 1-.5-.5V3a.5.5 0 0 1 .5-.5Zm9 8.866a1 1 0 0 0 0-1.732l-3-1.732a1 1 0 0 0-1.5.866v3.464a1 1 0 0 0 1.5.866l3-1.732Zm7.19 6.872-1.595 2.763h-3.19l-1.596-2.763 1.596-2.763h3.19l1.596 2.763Zm1.733-1a2 2 0 0 1 0 2l-1.596 2.763a2 2 0 0 1-1.732 1h-3.19a2 2 0 0 1-1.732-1l-1.596-2.763a2 2 0 0 1 0-2l1.596-2.763a2 2 0 0 1 1.732-1h3.19a2 2 0 0 1 1.732 1l1.596 2.763ZM18 16.988a1.25 1.25 0 1 0 0 2.5 1.25 1.25 0 0 0 0-2.5Z" fill="#61666D"></path></svg>