<svg id="header-login" fill="none" viewBox="0 0 18 18"><path d="M6.75 8.25v2.625m4.5-2.625v2.625m-3.938-6.75H5.928c-1.418 0-2.128 0-2.67.276-.476.243-.864.63-1.107 1.107-.276.542-.276 1.252-.276 2.67v2.769c0 1.419 0 2.128.276 2.67.243.476.63.864 1.107 1.107C3.8 15 4.51 15 5.928 15h6.144c1.419 0 2.128 0 2.67-.276.476-.243.864-.63 1.107-1.107.276-.542.276-1.252.276-2.67V8.178c0-1.418 0-2.128-.276-2.67a2.533 2.533 0 0 0-1.107-1.107c-.542-.276-1.252-.276-2.67-.276h-1.384m-3.376 0h3.376m-3.376 0-1.687-2.25m5.063 2.25 1.687-2.25" stroke="#fff" stroke-width="1.333" stroke-linecap="round" stroke-linejoin="round"></path><path fill-rule="evenodd" clip-rule="evenodd" d="M5.175 1.275a.75.75 0 0 1 1.05.15l1.463 1.95h2.625l1.462-1.95a.75.75 0 1 1 1.2.9l-.788 1.05c.508.003.94.011 1.31.041.523.043.984.133 1.412.351a3.6 3.6 0 0 1 1.574 1.574c.218.428.308.89.35 1.411.042.506.042 1.13.042 1.901v1.819c0 .77 0 1.395-.041 1.9-.043.523-.133.984-.351 1.412a3.6 3.6 0 0 1-1.574 1.574c-.428.218-.89.308-1.411.35-.506.042-1.13.042-1.901.042H6.403c-.77 0-1.395 0-1.901-.041-.522-.043-.983-.133-1.411-.351a3.6 3.6 0 0 1-1.574-1.574c-.218-.428-.308-.89-.35-1.411-.042-.506-.042-1.13-.042-1.901V8.653c0-.77 0-1.395.041-1.901.043-.522.133-.983.351-1.411a3.6 3.6 0 0 1 1.574-1.574c.428-.218.89-.308 1.411-.35.37-.03.803-.04 1.311-.041l-.788-1.051a.75.75 0 0 1 .15-1.05Zm-.55 3.636c-.43.035-.672.1-.853.193a2.1 2.1 0 0 0-.918.918c-.093.181-.158.423-.193.852-.035.438-.036 1-.036 1.811v1.755c0 .81 0 1.373.036 1.81.035.43.1.672.193.853a2.1 2.1 0 0 0 .918.918c.181.093.423.158.852.193.438.035 1 .036 1.811.036h5.13c.81 0 1.373 0 1.81-.036.43-.035.672-.1.853-.193a2.1 2.1 0 0 0 .918-.918c.093-.181.158-.423.193-.852.035-.438.036-1 .036-1.811V8.685c0-.81 0-1.373-.036-1.81-.035-.43-.1-.672-.193-.853a2.1 2.1 0 0 0-.918-.918c-.181-.093-.423-.158-.852-.193-.438-.035-1-.036-1.811-.036h-5.13c-.81 0-1.373 0-1.81.036ZM6.75 7.5a.75.75 0 0 1 .75.75v2.625a.75.75 0 0 1-1.5 0V8.25a.75.75 0 0 1 .75-.75Zm4.5 0a.75.75 0 0 1 .75.75v2.625a.75.75 0 0 1-1.5 0V8.25a.75.75 0 0 1 .75-.75Z" fill="#61666D"></path></svg>