<svg id="header-creation" fill="none" viewBox="0 0 20 21"><path fill-rule="evenodd" clip-rule="evenodd" d="M10 1.743c-.07 0-.14 0-.212.002-3.934.11-7.204 3.404-7.286 7.338a7.478 7.478 0 0 0 2.868 6.05.83.83 0 0 1 .303.472l.631 2.842a2.082 2.082 0 0 0 2.032 1.63h3.326c.976 0 1.822-.678 2.034-1.633l.632-2.842a.825.825 0 0 1 .3-.467A7.478 7.478 0 0 0 17.5 9.243a7.5 7.5 0 0 0-7.5-7.5Zm0 1.666a5.84 5.84 0 0 1 5.834 5.834 5.798 5.798 0 0 1-2.236 4.582 2.505 2.505 0 0 0-.85 1.235H7.253a2.516 2.516 0 0 0-.85-1.236 5.786 5.786 0 0 1-2.233-4.706c.063-3.063 2.605-5.622 5.665-5.706.055-.002.111-.003.166-.003ZM7.637 16.76l.295 1.326c.042.191.21.324.404.324h3.326a.413.413 0 0 0 .407-.326l.294-1.323H7.637Zm2.72-10.662a.8.8 0 0 1 .359 1.074l-.609 1.216h1.08a.8.8 0 0 1 .716 1.158l-1.188 2.374a.8.8 0 1 1-1.43-.716l.607-1.216h-1.08a.8.8 0 0 1-.715-1.158l1.187-2.374a.8.8 0 0 1 1.074-.358Z" fill="currentColor"></path></svg>