<svg id="header-message" fill="none" viewBox="0 0 20 20"><path d="M15.435 17.315H4.567A3.571 3.571 0 0 1 1 13.748V5.31c0-1.966 1.6-3.567 3.567-3.567h10.866c1.966 0 3.567 1.6 3.567 3.567v8.438a3.57 3.57 0 0 1-3.565 3.567ZM4.567 3.543c-.974 0-1.766.793-1.766 1.767v8.438c0 .973.792 1.766 1.766 1.766h10.866c.974 0 1.766-.793 1.766-1.766V5.31c0-.974-.792-1.767-1.766-1.767H4.567Z" fill="currentColor"></path><path d="M10 10.743c-.488 0-.978-.133-1.403-.398l-.056-.039L4.333 7.2a.778.778 0 0 1-.143-1.147.918.918 0 0 1 1.23-.134l4.174 3.083a.826.826 0 0 0 .813 0L14.58 5.92a.918.918 0 0 1 1.23.134.78.78 0 0 1-.143 1.147L11.4 10.345a2.655 2.655 0 0 1-1.402.398Z" fill="currentColor"></path></svg>