<svg id="header-order" fill="none" viewBox="0 0 24 24"><rect opacity=".01" width="24" height="24" fill="#C4C4C4"></rect><path fill-rule="evenodd" clip-rule="evenodd" d="M8.5 4h7a.5.5 0 0 1 .5.5v2a.5.5 0 0 1-.5.5h-7a.5.5 0 0 1-.5-.5v-2a.5.5 0 0 1 .5-.5Zm-2-1c.456-.607 1.182-1 2-1h7c.818 0 1.544.393 2 1h2C20.88 3 22 4.063 22 5.375v14.25C22 20.937 20.88 22 19.5 22h-15C3.12 22 2 20.937 2 19.625V5.375C2 4.063 3.12 3 4.5 3h2ZM6 4.9H4.5c-.276 0-.5.213-.5.475v14.25c0 .262.224.475.5.475h15c.276 0 .5-.213.5-.475V5.375a.488.488 0 0 0-.5-.475H18v1.6A2.5 2.5 0 0 1 15.5 9h-7A2.5 2.5 0 0 1 6 6.5V4.9Zm0 7.6a1 1 0 0 1 1-1h7a1 1 0 1 1 0 2H7a1 1 0 0 1-1-1Zm1 3a1 1 0 1 0 0 2h3a1 1 0 1 0 0-2H7Z" fill="#61666D"></path></svg>