<svg id="header-subscription" fill="none" viewBox="0 0 20 21"><path d="M0 .743h20v20H0v-20Z" fill="#fff" fill-opacity=".01"></path><path fill-rule="evenodd" clip-rule="evenodd" d="M6.633 6.576A3.368 3.368 0 0 1 9.2 3.306v6.541a3.368 3.368 0 0 1-2.567-3.27ZM10 1.61A4.967 4.967 0 0 0 6.35 9.943H1.667a.8.8 0 0 0-.8.8A4.967 4.967 0 0 0 9.2 14.394v4.682a.8.8 0 0 0 .8.8 4.967 4.967 0 0 0 3.652-8.333h4.681a.8.8 0 0 0 .8-.8A4.967 4.967 0 0 0 10.8 7.091V2.41a.8.8 0 0 0-.8-.8Zm-4.167 12.5a3.368 3.368 0 0 1-3.27-2.567h6.541a3.368 3.368 0 0 1-3.27 2.567Zm5.063-4.167h6.542a3.368 3.368 0 0 0-6.542 0ZM10.8 18.18V11.64a3.368 3.368 0 0 1 0 6.541Z" fill="#61666D"></path></svg>