<svg id="header-vip" fill="none" viewBox="0 0 22 21"><path fill-rule="evenodd" clip-rule="evenodd" d="M11 1.743a9 9 0 1 0 0 18 9 9 0 0 0 0-18Zm0 1.636c4.06 0 7.364 3.303 7.364 7.364 0 4.06-3.303 7.363-7.364 7.363-4.06 0-7.363-3.303-7.363-7.363 0-4.06 3.303-7.364 7.363-7.364Z" fill="currentColor"></path><path fill-rule="evenodd" clip-rule="evenodd" d="M9.576 6.881c.194.347.338.72.429 1.105a2.13 2.13 0 0 1-.075 1.081c-.881.206-1.78.326-2.685.361-.021 0-.047.066-.074.196.018.393.136.773.346 1.105.206.262.32.148.56.075a4.27 4.27 0 0 1 1.49-.165c.174.115-.608 1.204-.823 1.53-.214.329-1.062 1.383-1.499 1.532-.436.146-.329.384.074.696.435.251.964.28 1.425.082.407-.21.743-.534.964-.935.131-.327 1.17-2.684 1.293-2.897.124-.213.297-.262.562-.353a6.257 6.257 0 0 1 2.066-.245c.577.1 1.071.123 1.13-.425a1.317 1.317 0 0 0-.618-1.278 2.953 2.953 0 0 0-1.598.172c-.248.083-.899.377-.98.303-.083-.073.213-.77-.083-1.35a1.722 1.722 0 0 0-1.426-.82c-.386 0-.543.181-.478.23Z" fill="currentColor"></path><path fill-rule="evenodd" clip-rule="evenodd" d="M11.467 11.465a.256.256 0 0 0-.016.324c.074.122 2.57 2.32 2.858 2.556.288.234.42.154.723-.811.305-.966-1.202-1.502-1.646-1.72a5.988 5.988 0 0 0-1.4-.406c-.065-.004-.15-.012-.236-.012-.11 0-.218.014-.283.069Z" fill="currentColor"></path></svg>