<svg id="palette-creative-ad" fill="none" viewBox="0 0 56 16"><rect width="56" height="16" rx="4" fill="#F6F7F8"></rect><path d="M9.148 6.816v2.16c0 .324-.168.492-.48.492-.36 0-.768-.024-1.224-.072l.216.816c.42.024.864.036 1.32.036.66-.024.996-.36 1.008-1.008V6.048H5.716v6.024c0 .612.324.924.996.924h2.856c.564 0 .948-.096 1.14-.288.216-.24.372-.864.456-1.884l-.816-.264c-.048.66-.132 1.104-.24 1.332-.096.192-.36.3-.768.3H7.048c-.312 0-.456-.144-.456-.42V6.816h2.556ZM7.624 2.304A20.09 20.09 0 0 1 4.42 6.06l.504.696A21.153 21.153 0 0 0 8.008 3.12c.768.816 1.668 1.908 2.7 3.276l.564-.6A49.95 49.95 0 0 0 8.26 2.304h-.636Zm4.356.948v7.476h.84V3.252h-.84Zm2.004 9.84c.672 0 1.02-.372 1.02-1.092V2.232h-.864v9.552c0 .36-.156.54-.456.54-.552 0-1.14-.024-1.752-.06l.192.828h1.86Zm7.824-8.352h.648v8.472h.876v-2.796h3.576v-.828h-3.576V7.56h3.504v-.84h-3.504V4.74h4.032v-.852H22.18c.192-.492.384-1.02.576-1.572l-.864-.192c-.672 2.028-1.548 3.672-2.604 4.92l.612.732c.72-.864 1.356-1.872 1.908-3.036Zm-3.84 1.728v6.744h.888v-8.04c.48-.816.888-1.692 1.212-2.628l-.816-.384a12.872 12.872 0 0 1-2.832 4.836l.288.912a14.24 14.24 0 0 0 1.26-1.44ZM34.144 7.56h2.136v1.62h-2.136V7.56Zm0 2.424h2.136v1.788h-2.136V9.984Zm0 2.616h5.208v-.828h-2.22V9.984h1.848V9.18h-1.848V7.56h1.848v-.816h-1.848V5.112h2.088v-.84h-2.292l.324-.12c-.156-.6-.372-1.248-.66-1.968l-.828.228c.276.6.516 1.224.708 1.86H34.3c.264-.612.492-1.236.672-1.884l-.84-.168a12.044 12.044 0 0 1-2.076 4.284l.288.912c.336-.408.66-.84.948-1.296v7.032h.852V12.6Zm2.136-7.488v1.632h-2.136V5.112h2.136ZM32.188 7.14c-.36.18-.732.348-1.116.516V5.232h1.212v-.84h-1.212v-2.22h-.876v2.22H28.66v.84h1.536v2.76c-.552.192-1.128.36-1.716.492l.216.864a31.187 31.187 0 0 0 1.5-.48v2.892c0 .312-.168.468-.492.468a9.4 9.4 0 0 1-.984-.06l.18.84h1.104c.708 0 1.068-.348 1.068-1.02V8.52c.384-.156.756-.324 1.116-.504V7.14Zm14.124-5.124-.948.168c.24.384.468.816.66 1.284H41.56v3.516c-.024 2.424-.384 4.308-1.056 5.676l.708.636c.78-1.584 1.188-3.684 1.236-6.312V4.296h8.892v-.828h-4.368c-.216-.54-.432-1.02-.66-1.452Z" fill="#9499A0"></path></svg>