<svg id="palette-ad" fill="none" viewBox="0 0 32 16"><path fill-rule="evenodd" clip-rule="evenodd" d="M4 .5h24A3.5 3.5 0 0 1 31.5 4v8a3.5 3.5 0 0 1-3.5 3.5H4A3.5 3.5 0 0 1 .5 12V4A3.5 3.5 0 0 1 4 .5ZM0 4a4 4 0 0 1 4-4h24a4 4 0 0 1 4 4v8a4 4 0 0 1-4 4H4a4 4 0 0 1-4-4V4Zm9.364-1.816.948-.168c.228.432.444.912.66 1.452h4.368v.828H6.448v2.688c-.048 2.628-.456 4.728-1.236 6.312l-.708-.636c.672-1.368 1.032-3.252 1.056-5.676V3.468h4.464c-.192-.468-.42-.9-.66-1.284Zm8.76 6.588h7.824v4.416h-.876v-.636H19v.636h-.876V8.772ZM19 9.6v2.136h6.072V9.6H19Zm2.712-4.884h-2.868a8.735 8.735 0 0 1-1.452 1.536l-.516-.684c1.08-.864 1.824-1.932 2.208-3.192l.864.096a7.808 7.808 0 0 1-.588 1.416h2.352V2.184h.876v1.704h3.924v.828h-3.924V6.66h4.836v.852H16.576V6.66h5.136V4.716Z" fill="currentColor"></path></svg>