<svg id="palette-refresh" fill="none" viewBox="0 0 20 20"><path d="M19.563 1.293c-.013-.53-.417-.865-.996-.853-.58.012-.878.366-.973.897-.05.275-.034.563-.037.845-.004.481 0 .963 0 1.445l-.227.102c-.253-.243-.501-.49-.759-.728C14.248.859 11.491.06 8.404.535 4.045 1.205.816 4.833.437 9.363c-.355 4.25 2.386 8.355 6.501 9.737 4.163 1.397 8.794-.23 11.136-3.914.15-.238.307-.481.399-.743.178-.51.089-.984-.415-1.256-.484-.263-.944-.157-1.288.288-.172.222-.303.476-.464.708-1.451 2.096-3.445 3.238-5.997 3.363-3.416.166-6.548-2.05-7.544-5.316a7.597 7.597 0 0 1 3.437-8.781c2.957-1.724 6.754-1.23 9.147 1.201.175.178.293.412.577.82-.934 0-1.653-.037-2.367.012-.659.045-1.007.437-1.002.988.005.536.379.979 1.012.995 1.655.04 3.311.025 4.966.008.546-.006.997-.318 1.014-.857.054-1.773.058-3.55.014-5.323Z" fill="currentColor"></path></svg>