<svg id="palette-channel" fill="none" viewBox="0 0 24 24"><path fill-rule="evenodd" clip-rule="evenodd" d="M9.45 9V6.5a2.7 2.7 0 1 0-2.7 2.7h2.5a.2.2 0 0 0 .2-.2Zm-2.7-7a4.5 4.5 0 0 0 0 9h2.5a2 2 0 0 0 2-2V6.5A4.5 4.5 0 0 0 6.75 2ZM9.45 14.5V17a2.7 2.7 0 1 1-2.7-2.7h2.5c.11 0 .2.09.2.2Zm-2.7 7a4.5 4.5 0 1 1 0-9h2.5a2 2 0 0 1 2 2V17a4.5 4.5 0 0 1-4.5 4.5ZM14.75 9.2h2.5a2.7 2.7 0 1 0-2.7-2.7V9c0 .11.09.2.2.2Zm2.5-7.2a4.5 4.5 0 0 0-4.5 4.5V9a2 2 0 0 0 2 2h2.5a4.5 4.5 0 1 0 0-9ZM14.75 14.3h2.5a2.7 2.7 0 1 1-2.7 2.7v-2.5c0-.11.09-.2.2-.2Zm2.5 7.2a4.5 4.5 0 0 1-4.5-4.5v-2.5a2 2 0 0 1 2-2h2.5a4.5 4.5 0 1 1 0 9Z" fill="currentColor"></path></svg>