<svg id="palette-service" fill="none" viewBox="0 0 24 24"><path d="M20.4 9.6V9A8.4 8.4 0 0 0 3.6 9v.6A2.37 2.37 0 0 0 1.35 12v3a2.36 2.36 0 0 0 2.4 2.4h1.5a2.36 2.36 0 0 0 2.4-2.4v-3A2.37 2.37 0 0 0 5.4 9.6V9a6.6 6.6 0 1 1 13.2 0v.6a2.37 2.37 0 0 0-2.25 2.4v3a2.42 2.42 0 0 0 1.93 2.36 7.25 7.25 0 0 1-4.45 3.25A3.44 3.44 0 0 0 12 20.1a3 3 0 0 0-1.68.44 1.38 1.38 0 0 0 0 2.42 3 3 0 0 0 1.68.44 2.47 2.47 0 0 0 2.2-1 9.06 9.06 0 0 0 6.07-5 2.36 2.36 0 0 0 2.38-2.4v-3a2.37 2.37 0 0 0-2.25-2.4ZM18.15 12a.551.551 0 0 1 .6-.6h1.5a.551.551 0 0 1 .6.6v3a.548.548 0 0 1-.6.6h-1.5a.55.55 0 0 1-.6-.6v-3Zm-15 0a.61.61 0 0 1 .16-.44.611.611 0 0 1 .44-.16h1.5a.55.55 0 0 1 .6.6v3a.55.55 0 0 1-.6.6h-1.5a.61.61 0 0 1-.44-.16.61.61 0 0 1-.16-.44v-3Z" fill="currentColor"></path></svg>