<svg id="palette-variety" fill="none" viewBox="0 0 36 18"><path d="M10.284 12.084c-1.044.492-2.268.888-3.672 1.176l.108.864c1.344-.3 2.532-.696 3.564-1.2v-.84ZM8.436 3.72C8.004 5.16 7.5 6.432 6.924 7.548a.856.856 0 0 1-.348.312l.216.744 1.848-.36c-.588 1.152-1.092 1.98-1.5 2.46a1.58 1.58 0 0 1-.396.24l.228.768c1.068-.156 2.184-.456 3.336-.888v-.78c-.78.312-1.56.564-2.352.756.648-.864 1.488-2.328 2.496-4.392l-.792-.3c-.216.48-.432.948-.636 1.38-.504.12-.996.216-1.488.288.576-.936 1.14-2.184 1.704-3.744l-.804-.312Zm8.568 1.284h-2.712A11.164 11.164 0 0 0 13.68 3.6l-.876.144c.228.384.432.804.624 1.26h-2.616v2.244h.816V5.784h4.536v1.464h.84V5.004Zm-5.388 5.94a8.96 8.96 0 0 1-1.332 2.916l.72.468c.612-.912 1.08-1.98 1.416-3.216l-.804-.168Zm4.44-.108-.744.24c.48.912.936 1.956 1.344 3.156l.756-.336a19.684 19.684 0 0 0-1.356-3.06Zm-2.58 3.756c.636 0 .96-.384.96-1.14V10.02h2.556v-.816h-6.168v.816h2.784v3.216c0 .396-.144.6-.432.6a8.96 8.96 0 0 1-.96-.06l.18.816h1.08Zm-1.74-7.5v.78h4.356v-.78h-4.356Zm6.984-2.28v.816h2.832v1.08h.876v-1.08h3.144v1.08h.876v-1.08h2.832v-.816h-2.832V3.66h-.876v1.152h-3.144V3.66h-.876v1.152H18.72Zm1.056 2.46v.84h6.42c-2.52 1.32-4.296 2.472-5.352 3.432-.792.696-1.188 1.308-1.188 1.824 0 .684.492 1.032 1.476 1.032h5.796c.66 0 1.152-.144 1.488-.42.336-.276.576-1.092.72-2.436l-.804-.324c-.12 1.248-.3 1.968-.54 2.136-.228.156-.54.24-.948.24h-5.772c-.336 0-.504-.132-.504-.372.048-.276.276-.612.684-1.02 1.032-.984 3.156-2.34 6.396-4.092v-.84h-7.872Z" fill="#F69"></path><rect x=".25" y=".75" width="35.5" height="16.5" rx="3.75" stroke="#F69" stroke-width=".5"></rect></svg>