<svg id="rate-crown-sliver" fill="none" viewBox="0 0 43 24"><path fill-rule="evenodd" clip-rule="evenodd" d="M2 0h41c-6.118 2.651-9.759 6.623-10.922 11.914C30 21.375 24 24 21 24H0V2a2 2 0 0 1 2-2Z" fill="url(#sliver_linear)"></path><path fill-rule="evenodd" clip-rule="evenodd" d="M15.18 9.26a.302.302 0 0 1 .06.06L18 13l3.39-1.695a.3.3 0 0 1 .423.35l-1.606 5.62a1 1 0 0 1-.961.725h-8.492a1 1 0 0 1-.961-.725l-1.606-5.62a.3.3 0 0 1 .423-.35L12 13l2.76-3.68a.3.3 0 0 1 .42-.06ZM15 14a1 1 0 1 0 0 2 1 1 0 0 0 0-2ZM7.5 8a1.5 1.5 0 1 1 0 3 1.5 1.5 0 0 1 0-3Zm15 0a1.5 1.5 0 1 1 0 3 1.5 1.5 0 0 1 0-3ZM15 5.7a1.5 1.5 0 1 1 0 3 1.5 1.5 0 0 1 0-3Z" fill="#5F95A9"></path><defs><linearGradient id="sliver_linear" x1="23" y1="24" x2="23" y2="0" gradientUnits="userSpaceOnUse"><stop stop-color="#ADC1D1"></stop><stop offset="1" stop-color="#D5DCE3"></stop></linearGradient></defs></svg>