<svg id="user-live" fill="none" viewBox="0 0 24 24"><rect opacity=".01" width="24" height="24" fill="#C4C4C4"></rect><path fill-rule="evenodd" clip-rule="evenodd" d="M16.5 2h-13A2.507 2.507 0 0 0 1 4.5v14C1 19.875 2.125 21 3.5 21h13c1.375 0 2.5-1.125 2.5-2.5v-14C19 3.125 17.875 2 16.5 2Zm0 2c.271 0 .5.229.5.5v14c0 .271-.229.5-.5.5h-13a.507.507 0 0 1-.5-.5v-14c0-.271.229-.5.5-.5h13Z" fill="#61666D"></path><path fill-rule="evenodd" clip-rule="evenodd" d="M21.054 5c-.107 0-.216.01-.325.03l-2.1.392C17.69 5.598 17 6.509 17 7.576v7.496c0 1.068.69 1.979 1.63 2.155l2.1.391c.109.021.218.03.325.03 1.054 0 1.946-.959 1.946-2.184V7.185C23 5.959 22.108 5 21.054 5Zm-.086 2.021c.017.036.032.09.032.164v8.279a.388.388 0 0 1-.032.164l-1.915-.357a.355.355 0 0 1-.053-.199V7.576c0-.101.032-.168.053-.198l1.915-.357ZM5 7a1 1 0 0 1 1-1h3a1 1 0 0 1 0 2H6a1 1 0 0 1-1-1Z" fill="#61666D"></path></svg>