<svg id="user-cheese" fill="none" viewBox="0 0 24 24"><rect opacity=".01" width="24" height="24" fill="#C4C4C4"></rect><path fill-rule="evenodd" clip-rule="evenodd" d="M11.372 1h4.494C18.689 1 21 3.311 21 6.134v11.875A5.006 5.006 0 0 1 16.009 23H4.722A2.731 2.731 0 0 1 2 20.277V3.723A2.731 2.731 0 0 1 4.722 1h6.65ZM10 3H8v5.151l.106-.039a2.578 2.578 0 0 1 1.79 0l.104.039V3ZM6 3v7.058c0 .398.293.7.627.7a.574.574 0 0 0 .2-.037l1.975-.734a.568.568 0 0 1 .397 0l1.975.734a.574.574 0 0 0 .2.037c.333 0 .626-.302.626-.7V3h3.867A3.136 3.136 0 0 1 19 6.134v11.875A2.995 2.995 0 0 1 16.009 21H4.722A.732.732 0 0 1 4 20.277V3.723C4 3.331 4.331 3 4.722 3h1.277Z" fill="#61666D"></path></svg>