<svg id="user-pay" fill="none" viewBox="0 0 24 24"><path opacity=".01" d="M0 0h24v24H0V0Z" fill="#C4C4C4"></path><path fill-rule="evenodd" clip-rule="evenodd" d="M20.5 8h-5.22A3.291 3.291 0 0 0 12 11.281v1.438A3.291 3.291 0 0 0 15.28 16h5.22a2.5 2.5 0 0 0 2.5-2.5v-3A2.5 2.5 0 0 0 20.5 8Zm0 2c.275 0 .5.225.5.5v3c0 .275-.225.5-.5.5h-5.22A1.299 1.299 0 0 1 14 12.719v-1.438c0-.694.587-1.281 1.28-1.281h5.22Z" fill="#61666D"></path><path fill-rule="evenodd" clip-rule="evenodd" d="M4.433 2h15.133A2.44 2.44 0 0 1 22 4.434V9h-2V4.434A.44.44 0 0 0 19.566 4H4.433A.439.439 0 0 0 4 4.434v15.132c0 .236.198.434.433.434h15.133a.44.44 0 0 0 .434-.434V15h2v4.566A2.44 2.44 0 0 1 19.566 22H4.433A2.44 2.44 0 0 1 2 19.566V4.434A2.44 2.44 0 0 1 4.433 2Z" fill="#61666D"></path></svg>