<svg id="user-shop" fill="none" viewBox="0 0 24 24"><rect opacity=".01" x="2.182" y="2.182" width="19.636" height="19.636" fill="#C4C4C4"></rect><path d="M2 9a2 2 0 0 1 2-2h16a2 2 0 0 1 2 2v2l-.7.42a3.5 3.5 0 0 1-3.6 0L17 11l-.7.42a3.5 3.5 0 0 1-3.6 0L12 11l-.7.42a3.5 3.5 0 0 1-3.6 0L7 11l-.7.42a3.5 3.5 0 0 1-3.6 0L2 11V9Z" stroke="#61666D" stroke-width="2" stroke-linecap="round" stroke-linejoin="round"></path><path d="M4 12.245v7.922a1.5 1.5 0 0 0 1.5 1.5h13a1.5 1.5 0 0 0 1.5-1.5V12M4 6.911v-2.41A1.5 1.5 0 0 1 5.5 3h13A1.5 1.5 0 0 1 20 4.5V7" stroke="#61666D" stroke-width="2" stroke-linecap="round" stroke-linejoin="round"></path><path d="M14.5 17h-5v4.666h5V17Z" stroke="#61666D" stroke-width="2" stroke-linecap="round" stroke-linejoin="round"></path></svg>