<svg id="widget-sina" fill="none" viewBox="0 0 34 30"><path fill-rule="evenodd" clip-rule="evenodd" d="M27.211 10.657c-.551 0-1.102-.551-1.102-1.102.183-1.287-.552-2.573-2.022-2.94h-.55c-.552 0-1.103-.552-1.103-1.103 0-.551.55-1.102 1.102-1.102 2.573 0 4.594 2.021 4.594 4.593v.368c0 .918-.367 1.286-.919 1.286M13.247 19.66c-.368 0-.552.368-.552.736 0 .367.368.55.552.55.183 0 .55-.367.55-.55.185-.368-.183-.736-.55-.736m-3.124.552c-.918 0-1.654.735-1.654 1.653 0 .92.736 1.654 1.654 1.654.919 0 1.654-.735 1.654-1.654 0-.918-.735-1.653-1.654-1.653m2.94 5.145c-2.94.734-5.88-.552-6.431-3.124-.551-2.573 1.286-4.961 4.226-5.696 2.94-.735 5.88.551 6.431 3.123.551 2.573-1.286 4.962-4.226 5.697m-.735-11.576c-5.512.367-9.922 3.491-9.738 7.166.183 3.675 4.96 6.247 10.473 5.88 5.513-.368 9.922-3.491 9.739-7.167-.184-3.674-4.962-6.063-10.474-5.88m10.474-4.96c2.388 1.102.918 5.512.918 5.512a5.7 5.7 0 0 1 3.308 1.654c2.572 2.94.367 9.187-8.453 12.127-7.9 2.572-15.802 0-18.006-4.962-2.205-5.328 2.204-13.413 9.738-17.639.919-.551 3.858-1.47 5.512.368.919 1.102 0 4.226 0 4.226s3.491-2.94 6.982-1.286m10.107 1.837c0 .735-.736 1.47-1.47 1.47-.735 0-1.47-.735-1.47-1.47v-.184c.55-3.674-2.022-6.982-5.696-7.533h-1.103c-.735 0-1.47-.735-1.47-1.47S22.434 0 23.17 0h.184c5.328 0 9.738 4.41 9.738 9.738v.735c-.183 0-.183.184-.183.184" fill="currentColor"></path></svg>