<svg id="widget-gongyi" fill="none" viewBox="0 0 56 56"><circle cx="28" cy="28" r="28" fill="#00AEEC"></circle><path d="M41 32.78c-4.49 0-8.129 3.603-8.129 8.047M23.129 40.828c0-4.445-3.64-8.048-8.129-8.048" stroke="#fff" stroke-width="2.5" stroke-linecap="round"></path><path d="M18.534 16.728a7.327 7.327 0 0 1 6.78-1.435c.344.1.43.53.176.782l-3.412 3.37a1.097 1.097 0 0 0 0 1.56 1.124 1.124 0 0 0 1.58 0l3.948-3.9c2.835-2.802 7.432-2.802 10.267 0a7.112 7.112 0 0 1 0 10.143l-9.169 9.058a1 1 0 0 1-1.405 0l-9.565-9.449.015-.015a7.113 7.113 0 0 1 .785-10.114Z" fill="#fff"></path></svg>