<svg id="widget-wechat" fill="none" viewBox="0 0 36 29"><path fill-rule="evenodd" clip-rule="evenodd" d="M17.423 5.197c-.99 0-1.782.77-1.782 1.732s.792 1.732 1.782 1.732 1.782-.77 1.782-1.732c0-.963-.792-1.732-1.782-1.732m-8.514 0c-.988 0-1.781.77-1.781 1.732S7.92 8.66 8.909 8.66c.99 0 1.783-.77 1.783-1.732 0-.963-.793-1.732-1.783-1.732m4.95 12.895c0 .962.198 1.924.594 2.694h-1.187c-1.387 0-2.97-.192-4.357-.577L3.96 22.52l1.188-3.85C1.98 16.745 0 13.857 0 10.393 0 4.62 5.94 0 13.067 0c6.533 0 11.88 3.85 12.87 8.66h-.99c-6.139 0-11.088 4.235-11.088 9.431m15.047-4.234c-.792 0-1.387.577-1.387 1.347 0 .771.595 1.348 1.387 1.348s1.386-.577 1.386-1.348c0-.77-.595-1.347-1.386-1.347m-7.127 0c-.792 0-1.386.577-1.386 1.347 0 .771.594 1.348 1.386 1.348.791 0 1.385-.577 1.385-1.348 0-.77-.594-1.347-1.386-1.347m9.701 11.356.99 3.079-3.563-1.924c-1.188.384-2.376.577-3.761.577-5.743 0-10.494-3.85-10.494-8.66 0-4.812 4.751-8.662 10.494-8.662 5.74 0 10.492 3.85 10.492 8.661 0 2.695-1.583 5.197-4.158 6.929" fill="currentColor"></path></svg>