<svg id="widget-followed" fill="none" viewBox="0 0 45 45"><g filter="url(#filter0_d_1644_133773)"><path fill-rule="evenodd" clip-rule="evenodd" d="M31.79 14.297c-1.546-1.261-3.204-1.93-4.887-1.918-1.457.01-2.841.527-4.1 1.463-1.27-.937-2.676-1.435-4.137-1.435-1.687 0-3.343.663-4.846 1.89-1.68 1.372-2.463 3.786-2.44 5.897.021 2.117.773 4.123 2.277 5.748 2.958 3.196 6.58 5.69 8.006 6.668.685.47 1.597.471 2.283.002 1.43-.977 5.057-3.485 7.996-6.686 1.502-1.635 2.269-3.612 2.29-5.726.023-2.11-.763-4.532-2.443-5.903Zm-3.68 5.906a1 1 0 1 0-1.372-1.455l-4.214 3.974-2.101-1.91a1 1 0 0 0-1.346 1.48l2.786 2.533a1 1 0 0 0 1.36-.012l4.887-4.61Z" fill="currentColor"></path></g><defs><filter id="filter0_d_1644_133773" x="9.379" y="12.379" width="26.855" height="24.584" filterUnits="userSpaceOnUse" color-interpolation-filters="sRGB"><feFlood flood-opacity="0" result="BackgroundImageFix"></feFlood><feColorMatrix in="SourceAlpha" values="0 0 0 0 0 0 0 0 0 0 0 0 0 0 0 0 0 0 127 0" result="hardAlpha"></feColorMatrix><feOffset dy="2"></feOffset><feGaussianBlur stdDeviation="1"></feGaussianBlur><feColorMatrix values="0 0 0 0 0 0 0 0 0 0 0 0 0 0 0 0 0 0 0.2 0"></feColorMatrix><feBlend in2="BackgroundImageFix" result="effect1_dropShadow_1644_133773"></feBlend><feBlend in="SourceGraphic" in2="effect1_dropShadow_1644_133773" result="shape"></feBlend></filter></defs></svg>