<svg id="widget-entry-arrow" fill="none" viewBox="0 0 7 11"><path fill-rule="evenodd" clip-rule="evenodd" d="M1.104 1.104a.355.355 0 0 0 0 .502l3.888 3.887-3.888 3.888a.355.355 0 0 0 .502.502l3.97-3.972a.591.591 0 0 0 0-.836l-3.97-3.971a.355.355 0 0 0-.502 0Z" fill="currentColor"></path><path d="M1.104 1.606 1.81.898l-.707.708Zm0-.502.707.707-.707-.707Zm3.888 4.39.707.706a1 1 0 0 0 0-1.414l-.707.707ZM1.104 9.38l-.707-.707.707.707Zm0 .502-.707.707.707-.707Zm.502 0-.708-.708.708.708Zm3.97-3.972.708.707-.707-.707Zm0-.836-.706.707.707-.707Zm-3.97-3.971-.708.707.708-.707ZM1.81.898a.645.645 0 0 1 0 .913L.397.397c-.53.529-.53 1.387 0 1.916L1.81.898Zm3.888 3.888L1.81.898.397 2.313 4.284 6.2 5.7 4.786ZM1.81 10.088 5.699 6.2 4.284 4.786.397 8.674l1.414 1.414Zm0-.913a.645.645 0 0 1 0 .913L.397 8.674c-.53.529-.53 1.387 0 1.916L1.81 9.175Zm-.913 0a.645.645 0 0 1 .913 0L.397 10.59c.529.529 1.387.529 1.916 0L.898 9.175Zm3.972-3.97L.898 9.174l1.415 1.415 3.971-3.972L4.87 5.204Zm0 .577a.409.409 0 0 1 0-.578l1.414 1.414a1.591 1.591 0 0 0 0-2.25L4.87 5.782ZM.898 1.811 4.87 5.782l1.414-1.414L2.313.397.898 1.81Zm.913 0a.645.645 0 0 1-.913 0L2.313.397a1.355 1.355 0 0 0-1.916 0L1.81 1.81Z" fill="currentColor"></path></svg>