<svg id="widget-share" fill="none" viewBox="0 0 16 16"><path fill-rule="evenodd" clip-rule="evenodd" d="M8.736 1.997c-.762-.62-1.903-.078-1.903.905v1.842c-.984.173-2.16.59-3.19 1.536-1.196 1.1-2.14 2.863-2.403 5.63-.045.475.29.783.617.87a.877.877 0 0 0 .97-.369c.74-1.155 1.556-1.792 2.32-2.133a4.22 4.22 0 0 1 1.686-.362v1.848c0 .983 1.141 1.526 1.903.905l5.127-4.172a1.5 1.5 0 0 0 0-2.327L8.736 1.997Zm-.903.905c0-.14.163-.218.272-.129l5.127 4.173a.5.5 0 0 1 0 .775l-5.127 4.173a.167.167 0 0 1-.272-.13V9.437a.5.5 0 0 0-.456-.498c-.752-.066-1.679 0-2.636.427-.84.374-1.68 1.014-2.435 2.04.313-2.214 1.114-3.561 2.015-4.388.985-.906 2.145-1.239 3.068-1.343a.5.5 0 0 0 .444-.497V2.902Z" fill="currentColor"></path></svg>