<svg id="widget-follow" fill="none" viewBox="0 0 44 44"><g filter="url(#filter0_d_1644_110696)"><path fill-rule="evenodd" clip-rule="evenodd" d="M29.148 22.427a1.056 1.056 0 1 0-2.112 0v1.884h-2.005a1.056 1.056 0 0 0 0 2.112h2.005v1.912a1.056 1.056 0 0 0 2.112 0v-1.912h1.976a1.056 1.056 0 0 0 0-2.112h-1.976v-1.884Z" fill="#fff"></path><path d="M24.684 31.24c-.44.32-.884.633-1.334.94a1.34 1.34 0 0 1-1.49.002 52.583 52.583 0 0 1-2.85-2.085c-.51-.4-1.006-.816-1.486-1.249l-.204-.181c-.502-.445-1.302-1.153-1.623-1.456-1.088-1.03-1.868-1.984-2.386-2.917a6.394 6.394 0 0 1-.845-3.168c0-1.796.507-3.61 1.652-4.8 1.125-1.173 2.47-1.668 4.134-1.66 1.534 0 3.225.776 4.324 1.832l.013.012.015-.013c1.151-1.074 2.957-1.83 4.46-1.83 1.687 0 3.005.48 4.142 1.66 1.145 1.189 1.536 3.002 1.536 4.798" stroke="#fff" stroke-width="2.592" stroke-linecap="round" stroke-linejoin="round"></path></g><defs><filter id="filter0_d_1644_110696" x="9.17" y="13.371" width="26.867" height="24.333" filterUnits="userSpaceOnUse" color-interpolation-filters="sRGB"><feFlood flood-opacity="0" result="BackgroundImageFix"></feFlood><feColorMatrix in="SourceAlpha" values="0 0 0 0 0 0 0 0 0 0 0 0 0 0 0 0 0 0 127 0" result="hardAlpha"></feColorMatrix><feOffset dy="2"></feOffset><feGaussianBlur stdDeviation="1"></feGaussianBlur><feColorMatrix values="0 0 0 0 0 0 0 0 0 0 0 0 0 0 0 0 0 0 0.2 0"></feColorMatrix><feBlend in2="BackgroundImageFix" result="effect1_dropShadow_1644_110696"></feBlend><feBlend in="SourceGraphic" in2="effect1_dropShadow_1644_110696" result="shape"></feBlend></filter></defs></svg>